<?xml version="1.0" encoding="utf-8"?>
<!-- Generator: Adobe Illustrator 24.3.0, SVG Export Plug-In . SVG Version: 6.00 Build 0)  -->
<svg version="1.1" id="Capa_1" focusable="false" xmlns="http://www.w3.org/2000/svg" xmlns:xlink="http://www.w3.org/1999/xlink"
	 x="0px" y="0px" viewBox="0 0 7.02 5.98" style="enable-background:new 0 0 7.02 5.98;" xml:space="preserve">
<style type="text/css">
	.st0{fill:#FFFFFF;}
</style>
<path class="st0" d="M3.09,0.62l0.28-0.28c0.12-0.12,0.31-0.12,0.42,0l2.43,2.43c0.12,0.12,0.12,0.31,0,0.42L3.79,5.63
	c-0.12,0.12-0.31,0.12-0.42,0L3.09,5.36C2.97,5.24,2.97,5.04,3.1,4.93L4.6,3.49h-3.6c-0.17,0-0.3-0.13-0.3-0.3v-0.4
	c0-0.17,0.13-0.3,0.3-0.3h3.6L3.1,1.05C2.97,0.94,2.97,0.74,3.09,0.62z"/>
</svg>
