<?xml version="1.0" encoding="utf-8"?>
<!-- Generator: Adobe Illustrator 24.3.0, SVG Export Plug-In . SVG Version: 6.00 Build 0)  -->
<svg version="1.1" xmlns="http://www.w3.org/2000/svg" xmlns:xlink="http://www.w3.org/1999/xlink" x="0px" y="0px"
	 viewBox="0 0 18 18" style="enable-background:new 0 0 18 18;" xml:space="preserve">
<style type="text/css">
	.st0{display:none;}
	.st1{display:inline;}
	.st2{clip-path:url(#SVGID_2_);fill:#FFFFFF;}
	.st3{clip-path:url(#SVGID_4_);fill:#FF0000;}
	.st4{clip-path:url(#SVGID_6_);fill:#FFFFFF;}
	.st5{clip-path:url(#SVGID_8_);fill:#040472;}
	.st6{clip-path:url(#SVGID_10_);}
	.st7{fill:#040472;}
	.st8{clip-path:url(#SVGID_12_);}
	.st9{fill:#FF0000;}
	.st10{fill:#E00707;}
	.st11{fill:#0A0ADD;}
	.st12{fill:#FFFFFF;}
</style>
<g id="Capa_1">
	<g id="Capa_1_1_" class="st0">
		<g class="st1">
			<g>
				<g>
					<g>
						<defs>
							<circle id="SVGID_1_" cx="9" cy="9.2" r="8.8"/>
						</defs>
						<clipPath id="SVGID_2_">
							<use xlink:href="#SVGID_1_"  style="overflow:visible;"/>
						</clipPath>
						<rect x="-0.3" y="0.3" class="st2" width="9.3" height="8.9"/>
					</g>
				</g>
			</g>
			<g>
				<g>
					<g>
						<defs>
							<circle id="SVGID_3_" cx="9" cy="9.2" r="8.8"/>
						</defs>
						<clipPath id="SVGID_4_">
							<use xlink:href="#SVGID_3_"  style="overflow:visible;"/>
						</clipPath>
						<rect x="9" y="0.3" class="st3" width="9.3" height="8.9"/>
					</g>
				</g>
			</g>
			<g>
				<g>
					<g>
						<defs>
							<circle id="SVGID_5_" cx="9" cy="9.2" r="8.8"/>
						</defs>
						<clipPath id="SVGID_6_">
							<use xlink:href="#SVGID_5_"  style="overflow:visible;"/>
						</clipPath>
						<rect x="9" y="9.2" class="st4" width="9.3" height="8.9"/>
					</g>
				</g>
			</g>
			<g>
				<g>
					<g>
						<defs>
							<circle id="SVGID_7_" cx="9" cy="9.2" r="8.8"/>
						</defs>
						<clipPath id="SVGID_8_">
							<use xlink:href="#SVGID_7_"  style="overflow:visible;"/>
						</clipPath>
						<rect x="-0.3" y="9.2" class="st5" width="9.3" height="8.9"/>
					</g>
				</g>
			</g>
			<g>
				<g>
					<g>
						<defs>
							<circle id="SVGID_9_" cx="9" cy="9.2" r="8.8"/>
						</defs>
						<clipPath id="SVGID_10_">
							<use xlink:href="#SVGID_9_"  style="overflow:visible;"/>
						</clipPath>
						<g class="st6">
							<g id="Capa_2_2_">
								<path class="st7" d="M3.8,4.1l0.5-1c0,0,0.1-0.4,0.3,0l0.5,1l1.2,0.1c0,0,0.2,0,0.1,0.2l-1,0.8l0.3,1.1c0,0,0.1,0.3-0.2,0.2
									l-1-0.7l-1,0.6c0,0-0.2,0.2-0.2-0.1l0.3-1.1L2.5,4.4c0,0-0.1-0.1,0-0.2C2.5,4.2,3.8,4.1,3.8,4.1z"/>
							</g>
						</g>
					</g>
				</g>
			</g>
			<g>
				<g>
					<g>
						<defs>
							<circle id="SVGID_11_" cx="9" cy="9.2" r="8.8"/>
						</defs>
						<clipPath id="SVGID_12_">
							<use xlink:href="#SVGID_11_"  style="overflow:visible;"/>
						</clipPath>
						<g class="st8">
							<g id="Capa_2_1_">
								<path class="st9" d="M13.1,12.9l0.5-1c0,0,0.1-0.4,0.3,0l0.5,1l1.2,0.1c0,0,0.2,0,0.1,0.2L14.8,14l0.3,1.1
									c0,0,0.1,0.3-0.2,0.2l-1-0.7l-1.1,0.6c0,0-0.2,0.2-0.2-0.1l0.3-1.1L12,13.2c0,0-0.1-0.1,0-0.2
									C11.8,13.1,13.1,12.9,13.1,12.9z"/>
							</g>
						</g>
					</g>
				</g>
			</g>
		</g>
	</g>
	<g id="Capa_4">
	</g>
	<g id="Capa_2_3_">
	</g>
	<g id="Capa_6">
	</g>
	<circle class="st10" cx="9" cy="9" r="8.6"/>
</g>
<g id="Capa_2">
	<path class="st11" d="M9,9V0.4c0,0-8.2-0.2-8.6,8.6C0.7,9,9,9,9,9z"/>
	<path class="st12" d="M9,9V0.4c0,0,8.6-0.4,8.6,8.6C17.3,9,9,9,9,9z"/>
	<g>
		<g id="Capa_2_5_">
			<path class="st12" d="M4.7,4.9L5,4.2c0,0,0.1-0.2,0.2,0c0,0,0.3,0.7,0.3,0.7l0.8,0.1c0,0,0.1,0,0.1,0.1c0,0-0.6,0.5-0.6,0.5
				l0.2,0.7c0,0,0.1,0.2-0.1,0.1c0,0-0.7-0.4-0.7-0.4L4.4,6.4c0,0-0.1,0.1-0.1-0.1c0,0,0.2-0.8,0.2-0.8L3.9,5.1c0,0-0.1,0,0-0.1
				C3.9,4.9,4.7,4.9,4.7,4.9z"/>
		</g>
	</g>
</g>
</svg>
