<?xml version="1.0" encoding="utf-8"?>
<!-- Generator: Adobe Illustrator 24.3.0, SVG Export Plug-In . SVG Version: 6.00 Build 0)  -->
<svg version="1.1" id="i-cart" xmlns="http://www.w3.org/2000/svg" xmlns:xlink="http://www.w3.org/1999/xlink" x="0px" y="0px"
	 viewBox="0 0 32 32" style="enable-background:new 0 0 32 32;" xml:space="preserve">
<style type="text/css">
	.st0{fill:#D5D5D5;}
</style>
<g>
	<g>
		<path class="st0" d="M30.5,6.6c-0.4-0.5-0.9-0.7-1.5-0.8L7.8,4.1C7.2,4,6.6,4.2,6.1,4.6C5.7,5,5.4,5.5,5.3,6.1l-0.4,4H3.2
			c-1.2,0-2.3,1-2.3,2.3v13.3c0,1.2,1,2.3,2.3,2.3h21.3c1.2,0,2.3-1,2.3-2.3v-2.2l0.8,0.1c0.1,0,0.1,0,0.2,0c1.2,0,2.2-0.9,2.3-2.1
			L31,8.3C31.1,7.7,30.9,7.1,30.5,6.6L30.5,6.6z M3.2,11.3h21.3c0.6,0,1.1,0.5,1.1,1.1v1.2H2.1v-1.2C2.1,11.8,2.6,11.3,3.2,11.3
			L3.2,11.3z M2.1,14.8h23.4v2.4H2.1L2.1,14.8z M24.5,26.8H3.2c-0.6,0-1.1-0.5-1.1-1.1v-7.3h23.4v7.3C25.6,26.3,25.1,26.8,24.5,26.8
			L24.5,26.8z M29.9,8.2l-1.1,13.2c0,0.6-0.6,1-1.2,1l-0.9-0.1v-9.9c0-1.2-1-2.3-2.3-2.3H6.1l0.4-3.9c0,0,0,0,0,0c0-0.6,0.6-1,1.2-1
			L28.9,7c0.3,0,0.6,0.2,0.7,0.4S29.9,7.9,29.9,8.2z"/>
		<path class="st0" d="M23.1,20.1h-5.7c-0.3,0-0.6,0.3-0.6,0.6v3.7c0,0.3,0.3,0.6,0.6,0.6h5.7c0.3,0,0.6-0.3,0.6-0.6v-3.7
			C23.7,20.4,23.4,20.1,23.1,20.1z M22.5,23.8H18v-2.5h4.5V23.8z"/>
	</g>
</g>
</svg>
