<svg id="Capa_1" enable-background="new 0 0 512 512" height="512" viewBox="0 0 512 512" width="512" xmlns="http://www.w3.org/2000/svg"><g><path d="m384.469 477h-107.469v-6c0-4.143-3.358-7.5-7.5-7.5h-27c-4.142 0-7.5 3.357-7.5 7.5v6h-180v-12.5c0-4.143-3.358-7.5-7.5-7.5h-12.5v-180h6c4.142 0 7.5-3.357 7.5-7.5v-27c0-4.143-3.358-7.5-7.5-7.5h-6v-180h12.5c4.142 0 7.5-3.357 7.5-7.5v-12.5h41.533c4.142 0 7.5-3.357 7.5-7.5s-3.358-7.5-7.5-7.5h-41.533v-12.5c0-4.143-3.358-7.5-7.5-7.5h-40c-4.142 0-7.5 3.357-7.5 7.5v40c0 4.143 3.358 7.5 7.5 7.5h12.5v180h-6c-4.142 0-7.5 3.357-7.5 7.5v27c0 4.143 3.358 7.5 7.5 7.5h6v180h-12.5c-4.142 0-7.5 3.357-7.5 7.5v40c0 4.143 3.358 7.5 7.5 7.5h40c4.142 0 7.5-3.357 7.5-7.5v-12.5h180v6c0 4.143 3.358 7.5 7.5 7.5h27c4.142 0 7.5-3.357 7.5-7.5v-6h107.469c4.142 0 7.5-3.357 7.5-7.5s-3.358-7.5-7.5-7.5zm-369.469-462h25v25h-25zm6.5 235h12v12h-12zm18.5 247h-25v-25h25zm222-6.5h-12v-12h12z"/><path d="m504.5 55c4.142 0 7.5-3.357 7.5-7.5v-40c0-4.143-3.358-7.5-7.5-7.5h-40c-4.142 0-7.5 3.357-7.5 7.5v12.5h-180v-6c0-4.143-3.358-7.5-7.5-7.5h-27c-4.142 0-7.5 3.357-7.5 7.5v6h-102.406c-4.142 0-7.5 3.357-7.5 7.5s3.358 7.5 7.5 7.5h102.406v6c0 4.143 3.358 7.5 7.5 7.5h27c4.142 0 7.5-3.357 7.5-7.5v-6h180v12.5c0 4.143 3.358 7.5 7.5 7.5h12.5v180h-6c-4.142 0-7.5 3.357-7.5 7.5v27c0 4.143 3.358 7.5 7.5 7.5h6v180h-12.5c-4.142 0-7.5 3.357-7.5 7.5v12.5h-37.474c-4.142 0-7.5 3.357-7.5 7.5s3.358 7.5 7.5 7.5h37.474v12.5c0 4.143 3.358 7.5 7.5 7.5h40c4.142 0 7.5-3.357 7.5-7.5v-40c0-4.143-3.358-7.5-7.5-7.5h-12.5v-180h6c4.142 0 7.5-3.357 7.5-7.5v-27c0-4.143-3.358-7.5-7.5-7.5h-6v-180zm-242.5-21.5h-12v-12h12zm235 463.5h-25v-25h25zm-6.5-235h-12v-12h12zm-18.5-247h25v25h-25z"/><path d="m79.287 426.196c2.322 3.275 6.103 5.231 10.116 5.231h85.856c8.202 0 15.641-5.168 18.513-12.868l21.831-58.743h80.946l21.593 58.674c2.833 7.738 10.284 12.938 18.538 12.938h85.917c4.016 0 7.798-1.954 10.118-5.228 2.32-3.273 2.912-7.489 1.582-11.275l-112.658-321.161c-2.781-7.892-10.268-13.193-18.63-13.193-23.514 0-70.817 0-94.018 0-8.363 0-15.85 5.303-18.633 13.204l-112.654 321.148c-1.329 3.785-.737 8 1.583 11.273zm125.221-327.447c.67-1.901 2.471-3.179 4.482-3.179h45.36c1.584.069 3.054.692 4.479 3.169l28.267 80.58c1.371 3.908 5.651 5.966 9.56 4.595s5.966-5.651 4.595-9.56l-27.637-78.784h29.394c2.011 0 3.812 1.277 4.479 3.169l111.439 317.688h-32.876c-.108-.505-73.17-208.919-73.17-208.919-1.371-3.909-5.653-5.968-9.56-4.595-3.909 1.371-5.966 5.651-4.595 9.56l71.543 203.954h-33.59c-1.985 0-3.775-1.244-4.457-3.106l-23.404-63.595c-1.085-2.95-3.896-4.91-7.039-4.91h-140.046c-3.134 0-5.938 1.949-7.03 4.888l-6.139 16.52c-1.443 3.883.535 8.199 4.417 9.643s8.2-.535 9.643-4.418l4.323-11.632h32.655l-19.886 53.51c-.692 1.855-2.483 3.102-4.456 3.102h-29.352l4.446-11.963c1.443-3.882-.535-8.199-4.417-9.643-3.881-1.443-8.2.535-9.643 4.418l-5.237 14.09c-.324.872-.89 1.622-1.63 2.167-.83.608-1.807.931-2.824.931h-33.53z"/><path d="m178.057 309.809h107.582c2.432 0 4.712-1.179 6.118-3.162s1.764-4.525.959-6.82l-53.961-153.854c-1.055-3.006-3.893-5.018-7.078-5.018-.002 0-.005 0-.007 0-3.188.003-6.026 2.021-7.075 5.032l-53.62 153.854c-.799 2.293-.438 4.832.968 6.812 1.407 1.98 3.685 3.156 6.114 3.156zm59.213-15 18.833-54.049 18.957 54.049zm-5.571-123.629 16.435 46.86-26.749 76.769h-32.772z"/></g></svg>