<?xml version="1.0" encoding="utf-8"?>
<!-- Generator: Adobe Illustrator 24.3.0, SVG Export Plug-In . SVG Version: 6.00 Build 0)  -->
<svg version="1.1" xmlns="http://www.w3.org/2000/svg" xmlns:xlink="http://www.w3.org/1999/xlink" x="0px" y="0px"
	 viewBox="0 0 401 429" style="enable-background:new 0 0 401 429;" xml:space="preserve">
<g id="Capa_1">
	<circle cx="13.5" cy="13.5" r="13"/>
	<circle cx="106.6" cy="13.5" r="13"/>
	<circle cx="106.6" cy="13.5" r="13"/>
	<circle cx="199.7" cy="13.5" r="13"/>
	<circle cx="199.7" cy="13.5" r="13"/>
	<circle cx="292.8" cy="13.5" r="13"/>
	<circle cx="292.8" cy="13.5" r="13"/>
	<circle cx="385.8" cy="13.5" r="13"/>
	<circle cx="13.5" cy="92.4" r="13"/>
	<circle cx="106.6" cy="92.4" r="13"/>
	<circle cx="106.6" cy="92.4" r="13"/>
	<circle cx="199.7" cy="92.4" r="13"/>
	<circle cx="199.7" cy="92.4" r="13"/>
	<circle cx="292.8" cy="92.4" r="13"/>
	<circle cx="292.8" cy="92.4" r="13"/>
	<circle cx="385.8" cy="92.4" r="13"/>
	<circle cx="13.5" cy="92.4" r="13"/>
	<circle cx="106.6" cy="92.4" r="13"/>
	<circle cx="106.6" cy="92.4" r="13"/>
	<circle cx="199.7" cy="92.4" r="13"/>
	<circle cx="199.7" cy="92.4" r="13"/>
	<circle cx="292.8" cy="92.4" r="13"/>
	<circle cx="292.8" cy="92.4" r="13"/>
	<circle cx="385.8" cy="92.4" r="13"/>
	<circle cx="13.5" cy="171.3" r="13"/>
	<circle cx="106.6" cy="171.3" r="13"/>
	<circle cx="106.6" cy="171.3" r="13"/>
	<circle cx="199.7" cy="171.3" r="13"/>
	<circle cx="199.7" cy="171.3" r="13"/>
	<circle cx="292.8" cy="171.3" r="13"/>
	<circle cx="292.8" cy="171.3" r="13"/>
	<circle cx="385.8" cy="171.3" r="13"/>
	<circle cx="14.3" cy="171.3" r="13"/>
	<circle cx="107.4" cy="171.3" r="13"/>
	<circle cx="107.4" cy="171.3" r="13"/>
	<circle cx="200.5" cy="171.3" r="13"/>
	<circle cx="200.5" cy="171.3" r="13"/>
	<circle cx="293.6" cy="171.3" r="13"/>
	<circle cx="293.6" cy="171.3" r="13"/>
	<circle cx="386.7" cy="171.3" r="13"/>
	<circle cx="14.3" cy="250.2" r="13"/>
	<circle cx="107.4" cy="250.2" r="13"/>
	<circle cx="107.4" cy="250.2" r="13"/>
	<circle cx="200.5" cy="250.2" r="13"/>
	<circle cx="200.5" cy="250.2" r="13"/>
	<circle cx="293.6" cy="250.2" r="13"/>
	<circle cx="293.6" cy="250.2" r="13"/>
	<circle cx="386.7" cy="250.2" r="13"/>
	<circle cx="14.3" cy="250.2" r="13"/>
	<circle cx="107.4" cy="250.2" r="13"/>
	<circle cx="107.4" cy="250.2" r="13"/>
	<circle cx="200.5" cy="250.2" r="13"/>
	<circle cx="200.5" cy="250.2" r="13"/>
	<circle cx="293.6" cy="250.2" r="13"/>
	<circle cx="293.6" cy="250.2" r="13"/>
	<circle cx="386.7" cy="250.2" r="13"/>
	<circle cx="14.3" cy="329.1" r="13"/>
	<circle cx="107.4" cy="329.1" r="13"/>
	<circle cx="107.4" cy="329.1" r="13"/>
	<circle cx="200.5" cy="329.1" r="13"/>
	<circle cx="200.5" cy="329.1" r="13"/>
	<circle cx="293.6" cy="329.1" r="13"/>
	<circle cx="293.6" cy="329.1" r="13"/>
	<circle cx="386.7" cy="329.1" r="13"/>
	<circle cx="14.3" cy="329.1" r="13"/>
	<circle cx="107.4" cy="329.1" r="13"/>
	<circle cx="107.4" cy="329.1" r="13"/>
	<circle cx="200.5" cy="329.1" r="13"/>
	<circle cx="200.5" cy="329.1" r="13"/>
	<circle cx="293.6" cy="329.1" r="13"/>
	<circle cx="293.6" cy="329.1" r="13"/>
	<circle cx="386.7" cy="329.1" r="13"/>
	<circle cx="14.3" cy="329.1" r="13"/>
	<circle cx="107.4" cy="329.1" r="13"/>
	<circle cx="107.4" cy="329.1" r="13"/>
	<circle cx="200.5" cy="329.1" r="13"/>
	<circle cx="200.5" cy="329.1" r="13"/>
	<circle cx="293.6" cy="329.1" r="13"/>
	<circle cx="293.6" cy="329.1" r="13"/>
	<circle cx="386.7" cy="329.1" r="13"/>
	<circle cx="14.3" cy="408" r="13"/>
	<circle cx="107.4" cy="408" r="13"/>
	<circle cx="107.4" cy="408" r="13"/>
	<circle cx="200.5" cy="408" r="13"/>
	<circle cx="200.5" cy="408" r="13"/>
	<circle cx="293.6" cy="408" r="13"/>
	<circle cx="293.6" cy="408" r="13"/>
	<circle cx="386.7" cy="408" r="13"/>
</g>
<g id="Capa_2">
</g>
</svg>
