<?xml version="1.0" encoding="utf-8"?>
<!-- Generator: Adobe Illustrator 24.3.0, SVG Export Plug-In . SVG Version: 6.00 Build 0)  -->
<svg version="1.1" id="Capa_1" xmlns="http://www.w3.org/2000/svg" xmlns:xlink="http://www.w3.org/1999/xlink" x="0px" y="0px"
	 viewBox="0 0 1000 1001.7" style="enable-background:new 0 0 1000 1001.7;" xml:space="preserve">
<style type="text/css">
	.st0{fill:#FC0377;}
</style>
<g>
	<g id="Capa_1_2_">
		<rect y="238" class="st0" width="1000" height="763.7"/>
	</g>
	<g id="Capa_2_2_">
		<g>
			<circle cx="792.2" cy="684.9" r="7.3"/>
		</g>
		<g>
			<circle cx="738.4" cy="684.9" r="7.3"/>
		</g>
		<g>
			<circle cx="902.1" cy="684.9" r="7.3"/>
		</g>
		<g>
			<circle cx="956.6" cy="684.9" r="7.3"/>
		</g>
		<g>
			<circle cx="848.2" cy="684.9" r="7.3"/>
		</g>
		<g>
			<circle cx="792.9" cy="730.9" r="7.3"/>
		</g>
		<g>
			<circle cx="739.1" cy="730.9" r="7.3"/>
		</g>
		<g>
			<circle cx="902.8" cy="730.9" r="7.3"/>
		</g>
		<g>
			<circle cx="957.4" cy="730.9" r="7.3"/>
		</g>
		<g>
			<circle cx="849" cy="730.9" r="7.3"/>
		</g>
		<g>
			<circle cx="792.7" cy="776.8" r="7.3"/>
		</g>
		<g>
			<circle cx="738.8" cy="776.8" r="7.3"/>
		</g>
		<g>
			<circle cx="902.5" cy="776.8" r="7.3"/>
		</g>
		<g>
			<circle cx="957.1" cy="776.8" r="7.3"/>
		</g>
		<g>
			<circle cx="848.7" cy="776.8" r="7.3"/>
		</g>
		<g>
			
				<ellipse transform="matrix(4.531451e-02 -0.999 0.999 4.531451e-02 -64.4682 1578.0769)" cx="793.4" cy="822.8" rx="7.3" ry="7.3"/>
		</g>
		<g>
			
				<ellipse transform="matrix(1.281731e-02 -0.9999 0.9999 1.281731e-02 -92.603 1551.7382)" cx="739.6" cy="822.8" rx="7.3" ry="7.3"/>
		</g>
		<g>
			<circle cx="903.3" cy="822.8" r="7.3"/>
		</g>
		<g>
			<circle cx="957.9" cy="822.8" r="7.3"/>
		</g>
		<g>
			<circle cx="849.5" cy="822.8" r="7.3"/>
		</g>
		<g>
			
				<ellipse transform="matrix(4.531451e-02 -0.999 0.999 4.531451e-02 -64.8202 1577.8134)" cx="793.1" cy="822.8" rx="7.3" ry="7.3"/>
		</g>
		<g>
			
				<ellipse transform="matrix(1.281736e-02 -0.9999 0.9999 1.281736e-02 -92.9653 1551.476)" cx="739.3" cy="822.8" rx="7.3" ry="7.3"/>
		</g>
		<g>
			<circle cx="903" cy="822.8" r="7.3"/>
		</g>
		<g>
			<circle cx="957.5" cy="822.8" r="7.3"/>
		</g>
		<g>
			<circle cx="849.1" cy="822.8" r="7.3"/>
		</g>
		<g>
			
				<ellipse transform="matrix(3.327801e-02 -0.9994 0.9994 3.327801e-02 -100.8615 1633.2274)" cx="793.8" cy="868.8" rx="7.3" ry="7.3"/>
		</g>
		<g>
			<ellipse transform="matrix(0.9999 -1.020252e-02 1.020252e-02 0.9999 -8.8249 7.595)" cx="740" cy="868.8" rx="7.3" ry="7.3"/>
		</g>
		<g>
			<circle cx="903.7" cy="868.8" r="7.3"/>
		</g>
		<g>
			<circle cx="958.3" cy="868.8" r="7.3"/>
		</g>
		<g>
			
				<ellipse transform="matrix(0.9951 -9.853770e-02 9.853770e-02 0.9951 -81.4686 87.9757)" cx="849.9" cy="868.8" rx="7.3" ry="7.3"/>
		</g>
		<g>
			
				<ellipse transform="matrix(3.327799e-02 -0.9994 0.9994 3.327799e-02 -147.0725 1677.4194)" cx="793.6" cy="914.7" rx="7.3" ry="7.3"/>
		</g>
		<g>
			
				<ellipse transform="matrix(0.9999 -1.020248e-02 1.020248e-02 0.9999 -9.2941 7.5947)" cx="739.7" cy="914.7" rx="7.3" ry="7.3"/>
		</g>
		<g>
			<circle cx="903.5" cy="914.7" r="7.3"/>
		</g>
		<g>
			<circle cx="958" cy="914.7" r="7.3"/>
		</g>
		<g>
			
				<ellipse transform="matrix(0.9951 -9.853771e-02 9.853771e-02 0.9951 -86.001 88.1737)" cx="849.6" cy="914.7" rx="7.3" ry="7.3"/>
		</g>
		<g>
			
				<ellipse transform="matrix(3.327798e-02 -0.9994 0.9994 3.327798e-02 -188.9996 1717.6702)" cx="793.4" cy="956.5" rx="7.3" ry="7.3"/>
		</g>
		<g>
			<ellipse transform="matrix(9.089745e-03 -1 1 9.089745e-03 -223.6402 1687.3853)" cx="739.6" cy="956.5" rx="7.3" ry="7.3"/>
		</g>
		<g>
			<circle cx="903.3" cy="956.5" r="7.3"/>
		</g>
		<g>
			<circle cx="957.9" cy="956.5" r="7.3"/>
		</g>
		<g>
			<circle cx="849.5" cy="956.5" r="7.3"/>
		</g>
	</g>
	<g id="Capa_2_1_">
		<g>
			<circle cx="83.8" cy="123.6" r="7.3"/>
		</g>
		<g>
			<circle cx="29.9" cy="123.6" r="7.3"/>
		</g>
		<g>
			<circle cx="193.6" cy="123.6" r="7.3"/>
		</g>
		<g>
			<circle cx="248.2" cy="123.6" r="7.3"/>
		</g>
		<g>
			<circle cx="139.8" cy="123.6" r="7.3"/>
		</g>
		<g>
			<circle cx="84.5" cy="169.5" r="7.3"/>
		</g>
		<g>
			<circle cx="30.7" cy="169.5" r="7.3"/>
		</g>
		<g>
			<circle cx="194.4" cy="169.5" r="7.3"/>
		</g>
		<g>
			<circle cx="248.9" cy="169.5" r="7.3"/>
		</g>
		<g>
			<circle cx="140.6" cy="169.5" r="7.3"/>
		</g>
		<g>
			<circle cx="84.2" cy="215.5" r="7.3"/>
		</g>
		<g>
			<circle cx="30.4" cy="215.5" r="7.3"/>
		</g>
		<g>
			<circle cx="194.1" cy="215.5" r="7.3"/>
		</g>
		<g>
			<circle cx="248.7" cy="215.5" r="7.3"/>
		</g>
		<g>
			<circle cx="140.3" cy="215.5" r="7.3"/>
		</g>
		<g>
			<ellipse transform="matrix(4.531451e-02 -0.999 0.999 4.531451e-02 -180.0622 334.5025)" cx="85" cy="261.5" rx="7.3" ry="7.3"/>
		</g>
		<g>
			
				<ellipse transform="matrix(1.281731e-02 -0.9999 0.9999 1.281731e-02 -230.6885 289.2532)" cx="31.1" cy="261.5" rx="7.3" ry="7.3"/>
		</g>
		<g>
			<circle cx="194.9" cy="261.5" r="7.3"/>
		</g>
		<g>
			<circle cx="249.5" cy="261.5" r="7.3"/>
		</g>
		<g>
			<circle cx="141.1" cy="261.5" r="7.3"/>
		</g>
		<g>
			
				<ellipse transform="matrix(4.531451e-02 -0.999 0.999 4.531451e-02 -180.4142 334.2389)" cx="84.7" cy="261.5" rx="7.3" ry="7.3"/>
		</g>
		<g>
			
				<ellipse transform="matrix(1.281736e-02 -0.9999 0.9999 1.281736e-02 -231.0507 288.991)" cx="30.8" cy="261.5" rx="7.3" ry="7.3"/>
		</g>
		<g>
			<circle cx="194.5" cy="261.5" r="7.3"/>
		</g>
		<g>
			<circle cx="249.1" cy="261.5" r="7.3"/>
		</g>
		<g>
			<circle cx="140.7" cy="261.5" r="7.3"/>
		</g>
		<g>
			
				<ellipse transform="matrix(3.327801e-02 -0.9994 0.9994 3.327801e-02 -224.7168 382.5614)" cx="85.4" cy="307.4" rx="7.3" ry="7.3"/>
		</g>
		<g>
			<ellipse transform="matrix(0.9999 -1.020252e-02 1.020252e-02 0.9999 -3.135 0.3381)" cx="31.6" cy="307.4" rx="7.3" ry="7.3"/>
		</g>
		<g>
			<circle cx="195.3" cy="307.4" r="7.3"/>
		</g>
		<g>
			<circle cx="249.9" cy="307.4" r="7.3"/>
		</g>
		<g>
			
				<ellipse transform="matrix(0.9951 -9.853770e-02 9.853770e-02 0.9951 -29.6062 15.4371)" cx="141.5" cy="307.4" rx="7.3" ry="7.3"/>
		</g>
		<g>
			
				<ellipse transform="matrix(3.327799e-02 -0.9994 0.9994 3.327799e-02 -270.9278 426.7534)" cx="85.1" cy="353.4" rx="7.3" ry="7.3"/>
		</g>
		<g>
			<ellipse transform="matrix(0.9999 -1.020248e-02 1.020248e-02 0.9999 -3.6042 0.3378)" cx="31.3" cy="353.4" rx="7.3" ry="7.3"/>
		</g>
		<g>
			<circle cx="195" cy="353.4" r="7.3"/>
		</g>
		<g>
			<circle cx="249.6" cy="353.4" r="7.3"/>
		</g>
		<g>
			
				<ellipse transform="matrix(0.9951 -9.853769e-02 9.853769e-02 0.9951 -34.1385 15.6351)" cx="141.2" cy="353.4" rx="7.3" ry="7.3"/>
		</g>
		<g>
			
				<ellipse transform="matrix(3.327798e-02 -0.9994 0.9994 3.327798e-02 -312.8549 467.0042)" cx="85" cy="395.2" rx="7.3" ry="7.3"/>
		</g>
		<g>
			<ellipse transform="matrix(9.089745e-03 -1 1 9.089745e-03 -364.3434 422.7791)" cx="31.1" cy="395.2" rx="7.3" ry="7.3"/>
		</g>
		<g>
			<circle cx="194.9" cy="395.2" r="7.3"/>
		</g>
		<g>
			<circle cx="249.5" cy="395.2" r="7.3"/>
		</g>
		<g>
			<circle cx="141.1" cy="395.2" r="7.3"/>
		</g>
	</g>
</g>
</svg>
