<?xml version="1.0" encoding="utf-8"?>
<!-- Generator: Adobe Illustrator 24.3.0, SVG Export Plug-In . SVG Version: 6.00 Build 0)  -->
<svg version="1.1" id="Capa_1" xmlns="http://www.w3.org/2000/svg" xmlns:xlink="http://www.w3.org/1999/xlink" x="0px" y="0px"
	 viewBox="0 0 1000 891.1" style="enable-background:new 0 0 1000 891.1;" xml:space="preserve">
<style type="text/css">
	.st0{fill:#FC0377;}
</style>
<g>
	<g id="Capa_1_2_">
		<rect y="238" class="st0" width="1000" height="653.1"/>
	</g>
	<g id="Capa_2_2_">
		<g>
			<circle cx="792.2" cy="551.9" r="7.3"/>
		</g>
		<g>
			<circle cx="738.4" cy="551.9" r="7.3"/>
		</g>
		<g>
			<circle cx="902.1" cy="551.9" r="7.3"/>
		</g>
		<g>
			<circle cx="956.6" cy="551.9" r="7.3"/>
		</g>
		<g>
			<circle cx="848.2" cy="551.9" r="7.3"/>
		</g>
		<g>
			<circle cx="792.9" cy="597.9" r="7.3"/>
		</g>
		<g>
			<circle cx="739.1" cy="597.9" r="7.3"/>
		</g>
		<g>
			<circle cx="902.8" cy="597.9" r="7.3"/>
		</g>
		<g>
			<circle cx="957.4" cy="597.9" r="7.3"/>
		</g>
		<g>
			<circle cx="849" cy="597.9" r="7.3"/>
		</g>
		<g>
			<circle cx="792.7" cy="643.8" r="7.3"/>
		</g>
		<g>
			<circle cx="738.8" cy="643.8" r="7.3"/>
		</g>
		<g>
			<circle cx="902.5" cy="643.8" r="7.3"/>
		</g>
		<g>
			<circle cx="957.1" cy="643.8" r="7.3"/>
		</g>
		<g>
			<circle cx="848.7" cy="643.8" r="7.3"/>
		</g>
		<g>
			
				<ellipse transform="matrix(4.531451e-02 -0.999 0.999 4.531451e-02 68.3951 1451.1038)" cx="793.4" cy="689.8" rx="7.3" ry="7.3"/>
		</g>
		<g>
			
				<ellipse transform="matrix(1.281731e-02 -0.9999 0.9999 1.281731e-02 40.386 1420.4429)" cx="739.6" cy="689.8" rx="7.3" ry="7.3"/>
		</g>
		<g>
			<circle cx="903.3" cy="689.8" r="7.3"/>
		</g>
		<g>
			<circle cx="957.9" cy="689.8" r="7.3"/>
		</g>
		<g>
			<circle cx="849.5" cy="689.8" r="7.3"/>
		</g>
		<g>
			
				<ellipse transform="matrix(4.531451e-02 -0.999 0.999 4.531451e-02 68.0432 1450.8402)" cx="793.1" cy="689.8" rx="7.3" ry="7.3"/>
		</g>
		<g>
			
				<ellipse transform="matrix(1.281736e-02 -0.9999 0.9999 1.281736e-02 40.0238 1420.1807)" cx="739.3" cy="689.8" rx="7.3" ry="7.3"/>
		</g>
		<g>
			<circle cx="903" cy="689.8" r="7.3"/>
		</g>
		<g>
			<circle cx="957.5" cy="689.8" r="7.3"/>
		</g>
		<g>
			<circle cx="849.1" cy="689.8" r="7.3"/>
		</g>
		<g>
			
				<ellipse transform="matrix(3.327801e-02 -0.9994 0.9994 3.327801e-02 32.0649 1504.6534)" cx="793.8" cy="735.8" rx="7.3" ry="7.3"/>
		</g>
		<g>
			<ellipse transform="matrix(0.9999 -1.020252e-02 1.020252e-02 0.9999 -7.468 7.5881)" cx="740" cy="735.8" rx="7.3" ry="7.3"/>
		</g>
		<g>
			<circle cx="903.7" cy="735.8" r="7.3"/>
		</g>
		<g>
			<circle cx="958.3" cy="735.8" r="7.3"/>
		</g>
		<g>
			
				<ellipse transform="matrix(0.9951 -9.853770e-02 9.853770e-02 0.9951 -68.363 87.3285)" cx="849.9" cy="735.8" rx="7.3" ry="7.3"/>
		</g>
		<g>
			
				<ellipse transform="matrix(3.327799e-02 -0.9994 0.9994 3.327799e-02 -14.1462 1548.8455)" cx="793.6" cy="781.7" rx="7.3" ry="7.3"/>
		</g>
		<g>
			
				<ellipse transform="matrix(0.9999 -1.020248e-02 1.020248e-02 0.9999 -7.9371 7.5878)" cx="739.7" cy="781.7" rx="7.3" ry="7.3"/>
		</g>
		<g>
			<circle cx="903.5" cy="781.7" r="7.3"/>
		</g>
		<g>
			<circle cx="958" cy="781.7" r="7.3"/>
		</g>
		<g>
			
				<ellipse transform="matrix(0.9951 -9.853771e-02 9.853771e-02 0.9951 -72.8954 87.5265)" cx="849.6" cy="781.7" rx="7.3" ry="7.3"/>
		</g>
		<g>
			
				<ellipse transform="matrix(3.327798e-02 -0.9994 0.9994 3.327798e-02 -56.0733 1589.0962)" cx="793.4" cy="823.5" rx="7.3" ry="7.3"/>
		</g>
		<g>
			<ellipse transform="matrix(9.089745e-03 -1 1 9.089745e-03 -90.6457 1555.5942)" cx="739.6" cy="823.5" rx="7.3" ry="7.3"/>
		</g>
		<g>
			<circle cx="903.3" cy="823.5" r="7.3"/>
		</g>
		<g>
			<circle cx="957.9" cy="823.5" r="7.3"/>
		</g>
		<g>
			<circle cx="849.5" cy="823.5" r="7.3"/>
		</g>
	</g>
	<g id="Capa_2_1_">
		<g>
			<circle cx="83.8" cy="137.6" r="7.3"/>
		</g>
		<g>
			<circle cx="29.9" cy="137.6" r="7.3"/>
		</g>
		<g>
			<circle cx="193.6" cy="137.6" r="7.3"/>
		</g>
		<g>
			<circle cx="248.2" cy="137.6" r="7.3"/>
		</g>
		<g>
			<circle cx="139.8" cy="137.6" r="7.3"/>
		</g>
		<g>
			<circle cx="84.5" cy="183.5" r="7.3"/>
		</g>
		<g>
			<circle cx="30.7" cy="183.5" r="7.3"/>
		</g>
		<g>
			<circle cx="194.4" cy="183.5" r="7.3"/>
		</g>
		<g>
			<circle cx="248.9" cy="183.5" r="7.3"/>
		</g>
		<g>
			<circle cx="140.6" cy="183.5" r="7.3"/>
		</g>
		<g>
			<circle cx="84.2" cy="229.5" r="7.3"/>
		</g>
		<g>
			<circle cx="30.4" cy="229.5" r="7.3"/>
		</g>
		<g>
			<circle cx="194.1" cy="229.5" r="7.3"/>
		</g>
		<g>
			<circle cx="248.7" cy="229.5" r="7.3"/>
		</g>
		<g>
			<circle cx="140.3" cy="229.5" r="7.3"/>
		</g>
		<g>
			<ellipse transform="matrix(4.531451e-02 -0.999 0.999 4.531451e-02 -194.0479 347.8681)" cx="85" cy="275.5" rx="7.3" ry="7.3"/>
		</g>
		<g>
			
				<ellipse transform="matrix(1.281731e-02 -0.9999 0.9999 1.281731e-02 -244.6873 303.0738)" cx="31.1" cy="275.5" rx="7.3" ry="7.3"/>
		</g>
		<g>
			<circle cx="194.9" cy="275.5" r="7.3"/>
		</g>
		<g>
			<circle cx="249.5" cy="275.5" r="7.3"/>
		</g>
		<g>
			<circle cx="141.1" cy="275.5" r="7.3"/>
		</g>
		<g>
			
				<ellipse transform="matrix(4.531451e-02 -0.999 0.999 4.531451e-02 -194.3998 347.6045)" cx="84.7" cy="275.5" rx="7.3" ry="7.3"/>
		</g>
		<g>
			
				<ellipse transform="matrix(1.281736e-02 -0.9999 0.9999 1.281736e-02 -245.0495 302.8116)" cx="30.8" cy="275.5" rx="7.3" ry="7.3"/>
		</g>
		<g>
			<circle cx="194.5" cy="275.5" r="7.3"/>
		</g>
		<g>
			<circle cx="249.1" cy="275.5" r="7.3"/>
		</g>
		<g>
			<circle cx="140.7" cy="275.5" r="7.3"/>
		</g>
		<g>
			
				<ellipse transform="matrix(3.327801e-02 -0.9994 0.9994 3.327801e-02 -238.709 396.0956)" cx="85.4" cy="321.4" rx="7.3" ry="7.3"/>
		</g>
		<g>
			<ellipse transform="matrix(0.9999 -1.020252e-02 1.020252e-02 0.9999 -3.2779 0.3388)" cx="31.6" cy="321.4" rx="7.3" ry="7.3"/>
		</g>
		<g>
			<circle cx="195.3" cy="321.4" r="7.3"/>
		</g>
		<g>
			<circle cx="249.9" cy="321.4" r="7.3"/>
		</g>
		<g>
			
				<ellipse transform="matrix(0.9951 -9.853770e-02 9.853770e-02 0.9951 -30.9857 15.5052)" cx="141.5" cy="321.4" rx="7.3" ry="7.3"/>
		</g>
		<g>
			
				<ellipse transform="matrix(3.327799e-02 -0.9994 0.9994 3.327799e-02 -284.9201 440.2876)" cx="85.1" cy="367.4" rx="7.3" ry="7.3"/>
		</g>
		<g>
			<ellipse transform="matrix(0.9999 -1.020248e-02 1.020248e-02 0.9999 -3.747 0.3385)" cx="31.3" cy="367.4" rx="7.3" ry="7.3"/>
		</g>
		<g>
			<circle cx="195" cy="367.4" r="7.3"/>
		</g>
		<g>
			<circle cx="249.6" cy="367.4" r="7.3"/>
		</g>
		<g>
			
				<ellipse transform="matrix(0.9951 -9.853769e-02 9.853769e-02 0.9951 -35.5181 15.7032)" cx="141.2" cy="367.4" rx="7.3" ry="7.3"/>
		</g>
		<g>
			
				<ellipse transform="matrix(3.327798e-02 -0.9994 0.9994 3.327798e-02 -326.8472 480.5383)" cx="85" cy="409.2" rx="7.3" ry="7.3"/>
		</g>
		<g>
			<ellipse transform="matrix(9.089745e-03 -1 1 9.089745e-03 -378.3428 436.6518)" cx="31.1" cy="409.2" rx="7.3" ry="7.3"/>
		</g>
		<g>
			<circle cx="194.9" cy="409.2" r="7.3"/>
		</g>
		<g>
			<circle cx="249.5" cy="409.2" r="7.3"/>
		</g>
		<g>
			<circle cx="141.1" cy="409.2" r="7.3"/>
		</g>
	</g>
</g>
</svg>
