<?xml version="1.0" encoding="utf-8"?>
<!-- Generator: Adobe Illustrator 24.3.0, SVG Export Plug-In . SVG Version: 6.00 Build 0)  -->
<svg version="1.1" id="Capa_1" xmlns="http://www.w3.org/2000/svg" xmlns:xlink="http://www.w3.org/1999/xlink" x="0px" y="0px"
	 viewBox="0 0 700 871.1" style="enable-background:new 0 0 700 871.1;" xml:space="preserve">
<style type="text/css">
	.st0{fill:#FC0377;}
</style>
<g id="Capa_1_1_">
	<rect class="st0" width="700" height="682.6"/>
</g>
<g id="Capa_2_1_">
	<g>
		<circle cx="181.9" cy="274.2" r="14.7"/>
	</g>
	<g>
		<circle cx="73.4" cy="274.2" r="14.7"/>
	</g>
	<g>
		<circle cx="403.4" cy="274.2" r="14.7"/>
	</g>
	<g>
		<circle cx="513.5" cy="274.2" r="14.7"/>
	</g>
	<g>
		<circle cx="294.9" cy="274.2" r="14.7"/>
	</g>
	<g>
		<circle cx="183.4" cy="366.9" r="14.7"/>
	</g>
	<g>
		<circle cx="74.8" cy="366.9" r="14.7"/>
	</g>
	<g>
		<circle cx="405" cy="366.9" r="14.7"/>
	</g>
	<g>
		<circle cx="514.9" cy="366.9" r="14.7"/>
	</g>
	<g>
		<circle cx="296.5" cy="366.9" r="14.7"/>
	</g>
	<g>
		<circle cx="182.9" cy="459.6" r="14.7"/>
	</g>
	<g>
		<circle cx="74.3" cy="459.6" r="14.7"/>
	</g>
	<g>
		<circle cx="404.4" cy="459.6" r="14.7"/>
	</g>
	<g>
		<circle cx="514.4" cy="459.6" r="14.7"/>
	</g>
	<g>
		<circle cx="295.8" cy="459.6" r="14.7"/>
	</g>
	<g>
		
			<ellipse transform="matrix(4.531452e-02 -0.999 0.999 4.531452e-02 -375.6508 711.3173)" cx="184.3" cy="552.2" rx="14.7" ry="14.7"/>
	</g>
	<g>
		
			<ellipse transform="matrix(1.281737e-02 -0.9999 0.9999 1.281737e-02 -477.3391 620.8973)" cx="75.8" cy="552.2" rx="14.7" ry="14.7"/>
	</g>
	<g>
		<circle cx="406" cy="552.2" r="14.7"/>
	</g>
	<g>
		<circle cx="516" cy="552.2" r="14.7"/>
	</g>
	<g>
		<circle cx="297.4" cy="552.2" r="14.7"/>
	</g>
	<g>
		
			<ellipse transform="matrix(4.531451e-02 -0.999 0.999 4.531451e-02 -376.3605 710.7857)" cx="183.7" cy="552.3" rx="14.7" ry="14.7"/>
	</g>
	<g>
		
			<ellipse transform="matrix(1.281739e-02 -0.9999 0.9999 1.281739e-02 -478.0694 620.3686)" cx="75.2" cy="552.3" rx="14.7" ry="14.7"/>
	</g>
	<g>
		<circle cx="405.2" cy="552.3" r="14.7"/>
	</g>
	<g>
		<circle cx="515.3" cy="552.3" r="14.7"/>
	</g>
	<g>
		<ellipse transform="matrix(0.9871 -0.1602 0.1602 0.9871 -84.6384 54.6542)" cx="296.7" cy="552.3" rx="14.7" ry="14.7"/>
	</g>
	<g>
		
			<ellipse transform="matrix(3.327797e-02 -0.9994 0.9994 3.327797e-02 -465.5509 808.5334)" cx="185.2" cy="644.9" rx="14.7" ry="14.7"/>
	</g>
	<g>
		
			<ellipse transform="matrix(0.9999 -1.020250e-02 1.020250e-02 0.9999 -6.5758 0.8154)" cx="76.6" cy="644.9" rx="14.7" ry="14.7"/>
	</g>
	<g>
		<circle cx="406.8" cy="644.9" r="14.7"/>
	</g>
	<g>
		<circle cx="516.8" cy="644.9" r="14.7"/>
	</g>
	<g>
		
			<ellipse transform="matrix(0.9951 -9.853768e-02 9.853768e-02 0.9951 -62.0976 32.5285)" cx="298.3" cy="644.9" rx="14.7" ry="14.7"/>
	</g>
	<g>
		
			<ellipse transform="matrix(3.327797e-02 -0.9994 0.9994 3.327797e-02 -558.7341 897.6452)" cx="184.6" cy="737.6" rx="14.7" ry="14.7"/>
	</g>
	<g>
		
			<ellipse transform="matrix(0.9999 -1.020250e-02 1.020250e-02 0.9999 -7.5219 0.8148)" cx="76.1" cy="737.6" rx="14.7" ry="14.7"/>
	</g>
	<g>
		<circle cx="406.3" cy="737.6" r="14.7"/>
	</g>
	<g>
		<circle cx="516.2" cy="737.6" r="14.7"/>
	</g>
	<g>
		
			<ellipse transform="matrix(0.9951 -9.853767e-02 9.853767e-02 0.9951 -71.237 32.9277)" cx="297.7" cy="737.6" rx="14.7" ry="14.7"/>
	</g>
	<g>
		
			<ellipse transform="matrix(3.327798e-02 -0.9994 0.9994 3.327798e-02 -643.2788 978.8095)" cx="184.3" cy="821.9" rx="14.7" ry="14.7"/>
	</g>
	<g>
		<ellipse transform="matrix(9.089786e-03 -1 1 9.089786e-03 -746.8027 890.2416)" cx="75.8" cy="821.9" rx="14.7" ry="14.7"/>
	</g>
	<g>
		<circle cx="406" cy="821.9" r="14.7"/>
	</g>
	<g>
		<circle cx="516" cy="821.9" r="14.7"/>
	</g>
	<g>
		<circle cx="297.4" cy="821.9" r="14.7"/>
	</g>
</g>
<g>
	<circle cx="621.5" cy="274.2" r="14.7"/>
</g>
<g>
	<circle cx="622.9" cy="366.9" r="14.7"/>
</g>
<g>
	<circle cx="622.4" cy="459.6" r="14.7"/>
</g>
<g>
	<circle cx="624" cy="552.2" r="14.7"/>
</g>
<g>
	<circle cx="623.3" cy="552.3" r="14.7"/>
</g>
<g>
	<circle cx="624.8" cy="644.9" r="14.7"/>
</g>
<g>
	<circle cx="624.2" cy="737.6" r="14.7"/>
</g>
<g>
	<circle cx="624" cy="821.9" r="14.7"/>
</g>
</svg>
