<?xml version="1.0" encoding="utf-8"?>
<!-- Generator: Adobe Illustrator 24.3.0, SVG Export Plug-In . SVG Version: 6.00 Build 0)  -->
<svg version="1.1" id="Capa_1" xmlns="http://www.w3.org/2000/svg" xmlns:xlink="http://www.w3.org/1999/xlink" x="0px" y="0px"
	 viewBox="0 0 1920 824.4" style="enable-background:new 0 0 1920 824.4;" xml:space="preserve">
<style type="text/css">
	.st0{fill:#FC0377;}
</style>
<rect y="274.1" class="st0" width="1920" height="550.3"/>
<g id="Capa_1_1_">
	<circle cx="54.8" cy="13" r="13"/>
	<circle cx="147.9" cy="13" r="13"/>
	<circle cx="147.9" cy="13" r="13"/>
	<circle cx="241" cy="13" r="13"/>
	<circle cx="241" cy="13" r="13"/>
	<circle cx="334.1" cy="13" r="13"/>
	<circle cx="334.1" cy="13" r="13"/>
	<circle cx="427.1" cy="13" r="13"/>
	<circle cx="54.8" cy="91.9" r="13"/>
	<circle cx="147.9" cy="91.9" r="13"/>
	<circle cx="147.9" cy="91.9" r="13"/>
	<circle cx="241" cy="91.9" r="13"/>
	<circle cx="241" cy="91.9" r="13"/>
	<circle cx="334.1" cy="91.9" r="13"/>
	<circle cx="334.1" cy="91.9" r="13"/>
	<circle cx="427.1" cy="91.9" r="13"/>
	<circle cx="54.8" cy="91.9" r="13"/>
	<circle cx="147.9" cy="91.9" r="13"/>
	<circle cx="147.9" cy="91.9" r="13"/>
	<circle cx="241" cy="91.9" r="13"/>
	<circle cx="241" cy="91.9" r="13"/>
	<circle cx="334.1" cy="91.9" r="13"/>
	<circle cx="334.1" cy="91.9" r="13"/>
	<circle cx="427.1" cy="91.9" r="13"/>
	<circle cx="54.8" cy="170.8" r="13"/>
	<circle cx="147.9" cy="170.8" r="13"/>
	<circle cx="147.9" cy="170.8" r="13"/>
	<circle cx="241" cy="170.8" r="13"/>
	<circle cx="241" cy="170.8" r="13"/>
	<circle cx="334.1" cy="170.8" r="13"/>
	<circle cx="334.1" cy="170.8" r="13"/>
	<circle cx="427.1" cy="170.8" r="13"/>
	<circle cx="55.6" cy="170.8" r="13"/>
	<circle cx="148.7" cy="170.8" r="13"/>
	<circle cx="148.7" cy="170.8" r="13"/>
	<circle cx="241.8" cy="170.8" r="13"/>
	<circle cx="241.8" cy="170.8" r="13"/>
	<circle cx="334.9" cy="170.8" r="13"/>
	<circle cx="334.9" cy="170.8" r="13"/>
	<circle cx="428" cy="170.8" r="13"/>
	<ellipse transform="matrix(9.802519e-03 -1 1 9.802519e-03 -194.6118 302.8711)" cx="55.6" cy="249.7" rx="13" ry="13"/>
	<circle cx="148.7" cy="249.7" r="13"/>
	<circle cx="148.7" cy="249.7" r="13"/>
	<circle cx="241.8" cy="249.7" r="13"/>
	<circle cx="241.8" cy="249.7" r="13"/>
	<circle cx="334.9" cy="249.7" r="13"/>
	<circle cx="334.9" cy="249.7" r="13"/>
	<circle cx="428" cy="249.7" r="13"/>
	<ellipse transform="matrix(9.802519e-03 -1 1 9.802519e-03 -194.6118 302.8711)" cx="55.6" cy="249.7" rx="13" ry="13"/>
	<circle cx="148.7" cy="249.7" r="13"/>
	<circle cx="148.7" cy="249.7" r="13"/>
	<circle cx="241.8" cy="249.7" r="13"/>
	<circle cx="241.8" cy="249.7" r="13"/>
	<circle cx="334.9" cy="249.7" r="13"/>
	<circle cx="334.9" cy="249.7" r="13"/>
	<circle cx="428" cy="249.7" r="13"/>
	<circle cx="55.6" cy="328.6" r="13"/>
	<circle cx="148.7" cy="328.6" r="13"/>
	<circle cx="148.7" cy="328.6" r="13"/>
	<circle cx="241.8" cy="328.6" r="13"/>
	<circle cx="241.8" cy="328.6" r="13"/>
	<circle cx="334.9" cy="328.6" r="13"/>
	<circle cx="334.9" cy="328.6" r="13"/>
	<circle cx="428" cy="328.6" r="13"/>
	<circle cx="55.6" cy="328.6" r="13"/>
	<circle cx="148.7" cy="328.6" r="13"/>
	<circle cx="148.7" cy="328.6" r="13"/>
	<circle cx="241.8" cy="328.6" r="13"/>
	<circle cx="241.8" cy="328.6" r="13"/>
	<circle cx="334.9" cy="328.6" r="13"/>
	<circle cx="334.9" cy="328.6" r="13"/>
	<circle cx="428" cy="328.6" r="13"/>
	<circle cx="55.6" cy="328.6" r="13"/>
	<circle cx="148.7" cy="328.6" r="13"/>
	<circle cx="148.7" cy="328.6" r="13"/>
	<circle cx="241.8" cy="328.6" r="13"/>
	<circle cx="241.8" cy="328.6" r="13"/>
	<circle cx="334.9" cy="328.6" r="13"/>
	<circle cx="334.9" cy="328.6" r="13"/>
	<circle cx="428" cy="328.6" r="13"/>
	<circle cx="55.6" cy="407.5" r="13"/>
	<circle cx="148.7" cy="407.5" r="13"/>
	<circle cx="148.7" cy="407.5" r="13"/>
	<circle cx="241.8" cy="407.5" r="13"/>
	<circle cx="241.8" cy="407.5" r="13"/>
	<circle cx="334.9" cy="407.5" r="13"/>
	<circle cx="334.9" cy="407.5" r="13"/>
	<circle cx="428" cy="407.5" r="13"/>
</g>
<g id="Capa_2_1_">
</g>
<g id="Capa_1_2_">
	<circle cx="1462.7" cy="355.6" r="13"/>
	<circle cx="1555.8" cy="355.6" r="13"/>
	<circle cx="1555.8" cy="355.6" r="13"/>
	<circle cx="1648.9" cy="355.6" r="13"/>
	<circle cx="1648.9" cy="355.6" r="13"/>
	<circle cx="1742" cy="355.6" r="13"/>
	<circle cx="1742" cy="355.6" r="13"/>
	<circle cx="1835" cy="355.6" r="13"/>
	<circle cx="1462.7" cy="434.5" r="13"/>
	<circle cx="1555.8" cy="434.5" r="13"/>
	<circle cx="1555.8" cy="434.5" r="13"/>
	<circle cx="1648.9" cy="434.5" r="13"/>
	<circle cx="1648.9" cy="434.5" r="13"/>
	<circle cx="1742" cy="434.5" r="13"/>
	<circle cx="1742" cy="434.5" r="13"/>
	<circle cx="1835" cy="434.5" r="13"/>
	<circle cx="1462.7" cy="434.5" r="13"/>
	<circle cx="1555.8" cy="434.5" r="13"/>
	<circle cx="1555.8" cy="434.5" r="13"/>
	<circle cx="1648.9" cy="434.5" r="13"/>
	<circle cx="1648.9" cy="434.5" r="13"/>
	<circle cx="1742" cy="434.5" r="13"/>
	<circle cx="1742" cy="434.5" r="13"/>
	<circle cx="1835" cy="434.5" r="13"/>
	<circle cx="1462.7" cy="513.4" r="13"/>
	<circle cx="1555.8" cy="513.4" r="13"/>
	<circle cx="1555.8" cy="513.4" r="13"/>
	<circle cx="1648.9" cy="513.4" r="13"/>
	<circle cx="1648.9" cy="513.4" r="13"/>
	<circle cx="1742" cy="513.4" r="13"/>
	<circle cx="1742" cy="513.4" r="13"/>
	<circle cx="1835" cy="513.4" r="13"/>
	<circle cx="1463.5" cy="513.4" r="13"/>
	<circle cx="1556.6" cy="513.4" r="13"/>
	<circle cx="1556.6" cy="513.4" r="13"/>
	<circle cx="1649.7" cy="513.4" r="13"/>
	<circle cx="1649.7" cy="513.4" r="13"/>
	<circle cx="1742.8" cy="513.4" r="13"/>
	<circle cx="1742.8" cy="513.4" r="13"/>
	<circle cx="1835.9" cy="513.4" r="13"/>
	<ellipse transform="matrix(9.802519e-03 -1 1 9.802519e-03 856.8234 2049.8972)" cx="1463.5" cy="592.3" rx="13" ry="13"/>
	<circle cx="1556.6" cy="592.3" r="13"/>
	<circle cx="1556.6" cy="592.3" r="13"/>
	<circle cx="1649.7" cy="592.3" r="13"/>
	<circle cx="1649.7" cy="592.3" r="13"/>
	<circle cx="1742.8" cy="592.3" r="13"/>
	<circle cx="1742.8" cy="592.3" r="13"/>
	<circle cx="1835.9" cy="592.3" r="13"/>
	<ellipse transform="matrix(9.802519e-03 -1 1 9.802519e-03 856.8234 2049.8972)" cx="1463.5" cy="592.3" rx="13" ry="13"/>
	<circle cx="1556.6" cy="592.3" r="13"/>
	<circle cx="1556.6" cy="592.3" r="13"/>
	<circle cx="1649.7" cy="592.3" r="13"/>
	<circle cx="1649.7" cy="592.3" r="13"/>
	<circle cx="1742.8" cy="592.3" r="13"/>
	<circle cx="1742.8" cy="592.3" r="13"/>
	<circle cx="1835.9" cy="592.3" r="13"/>
	<circle cx="1463.5" cy="671.2" r="13"/>
	<circle cx="1556.6" cy="671.2" r="13"/>
	<circle cx="1556.6" cy="671.2" r="13"/>
	<circle cx="1649.7" cy="671.2" r="13"/>
	<circle cx="1649.7" cy="671.2" r="13"/>
	<circle cx="1742.8" cy="671.2" r="13"/>
	<circle cx="1742.8" cy="671.2" r="13"/>
	<circle cx="1835.9" cy="671.2" r="13"/>
	<circle cx="1463.5" cy="671.2" r="13"/>
	<circle cx="1556.6" cy="671.2" r="13"/>
	<circle cx="1556.6" cy="671.2" r="13"/>
	<circle cx="1649.7" cy="671.2" r="13"/>
	<circle cx="1649.7" cy="671.2" r="13"/>
	<circle cx="1742.8" cy="671.2" r="13"/>
	<circle cx="1742.8" cy="671.2" r="13"/>
	<circle cx="1835.9" cy="671.2" r="13"/>
	<circle cx="1463.5" cy="671.2" r="13"/>
	<circle cx="1556.6" cy="671.2" r="13"/>
	<circle cx="1556.6" cy="671.2" r="13"/>
	<circle cx="1649.7" cy="671.2" r="13"/>
	<circle cx="1649.7" cy="671.2" r="13"/>
	<circle cx="1742.8" cy="671.2" r="13"/>
	<circle cx="1742.8" cy="671.2" r="13"/>
	<circle cx="1835.9" cy="671.2" r="13"/>
	<circle cx="1463.5" cy="750.1" r="13"/>
	<circle cx="1556.6" cy="750.1" r="13"/>
	<circle cx="1556.6" cy="750.1" r="13"/>
	<circle cx="1649.7" cy="750.1" r="13"/>
	<circle cx="1649.7" cy="750.1" r="13"/>
	<circle cx="1742.8" cy="750.1" r="13"/>
	<circle cx="1742.8" cy="750.1" r="13"/>
	<circle cx="1835.9" cy="750.1" r="13"/>
</g>
<g id="Capa_2_2_">
</g>
</svg>
