<?xml version="1.0" encoding="utf-8"?>
<!-- Generator: Adobe Illustrator 24.3.0, SVG Export Plug-In . SVG Version: 6.00 Build 0)  -->
<svg version="1.1" xmlns="http://www.w3.org/2000/svg" xmlns:xlink="http://www.w3.org/1999/xlink" x="0px" y="0px"
	 viewBox="0 0 480 800" style="enable-background:new 0 0 480 800;" xml:space="preserve">
<style type="text/css">
	.st0{fill:#FC0377;}
</style>
<g id="Capa_1">
	<rect x="0.8" class="st0" width="479.2" height="696.6"/>
</g>
<g id="Capa_2">
	<g>
		<circle cx="134.4" cy="257.1" r="13.9"/>
	</g>
	<g>
		<circle cx="31.5" cy="257.1" r="13.9"/>
	</g>
	<g>
		<circle cx="344.4" cy="257.1" r="13.9"/>
	</g>
	<g>
		<circle cx="448.7" cy="257.1" r="13.9"/>
	</g>
	<g>
		<circle cx="241.5" cy="257.1" r="13.9"/>
	</g>
	<g>
		<circle cx="135.8" cy="344.9" r="13.9"/>
	</g>
	<g>
		<circle cx="32.9" cy="344.9" r="13.9"/>
	</g>
	<g>
		<circle cx="345.9" cy="344.9" r="13.9"/>
	</g>
	<g>
		<circle cx="450.1" cy="344.9" r="13.9"/>
	</g>
	<g>
		<circle cx="243" cy="344.9" r="13.9"/>
	</g>
	<g>
		<circle cx="135.3" cy="432.8" r="13.9"/>
	</g>
	<g>
		<circle cx="32.4" cy="432.8" r="13.9"/>
	</g>
	<g>
		<circle cx="345.3" cy="432.8" r="13.9"/>
	</g>
	<g>
		<circle cx="449.6" cy="432.8" r="13.9"/>
	</g>
	<g>
		<circle cx="242.4" cy="432.8" r="13.9"/>
	</g>
	<g>
		<circle cx="136.7" cy="520.6" r="13.9"/>
	</g>
	<g>
		<circle cx="33.8" cy="520.6" r="13.9"/>
	</g>
	<g>
		<circle cx="346.8" cy="520.6" r="13.9"/>
	</g>
	<g>
		<circle cx="451.1" cy="520.6" r="13.9"/>
	</g>
	<g>
		<circle cx="243.9" cy="520.6" r="13.9"/>
	</g>
	<g>
		<circle cx="136.1" cy="520.7" r="13.9"/>
	</g>
	<g>
		<circle cx="33.2" cy="520.7" r="13.9"/>
	</g>
	<g>
		<circle cx="346.1" cy="520.7" r="13.9"/>
	</g>
	<g>
		<circle cx="450.4" cy="520.7" r="13.9"/>
	</g>
	<g>
		<circle cx="243.2" cy="520.7" r="13.9"/>
	</g>
	<g>
		<circle cx="137.5" cy="608.5" r="13.9"/>
	</g>
	<g>
		<circle cx="34.6" cy="608.5" r="13.9"/>
	</g>
	<g>
		<circle cx="347.6" cy="608.5" r="13.9"/>
	</g>
	<g>
		<circle cx="451.9" cy="608.5" r="13.9"/>
	</g>
	<g>
		<circle cx="244.7" cy="608.5" r="13.9"/>
	</g>
	<g>
		<circle cx="137" cy="696.4" r="13.9"/>
	</g>
	<g>
		<circle cx="34.1" cy="696.4" r="13.9"/>
	</g>
	<g>
		<circle cx="347.1" cy="696.4" r="13.9"/>
	</g>
	<g>
		<circle cx="451.3" cy="696.4" r="13.9"/>
	</g>
	<g>
		<circle cx="244.2" cy="696.4" r="13.9"/>
	</g>
	<g>
		<circle cx="136.7" cy="776.3" r="13.9"/>
	</g>
	<g>
		<circle cx="33.8" cy="776.3" r="13.9"/>
	</g>
	<g>
		<circle cx="346.8" cy="776.3" r="13.9"/>
	</g>
	<g>
		<circle cx="451.1" cy="776.3" r="13.9"/>
	</g>
	<g>
		<circle cx="243.9" cy="776.3" r="13.9"/>
	</g>
</g>
</svg>
