<?xml version="1.0" encoding="utf-8"?>
<!-- Generator: Adobe Illustrator 24.3.0, SVG Export Plug-In . SVG Version: 6.00 Build 0)  -->
<svg version="1.1" xmlns="http://www.w3.org/2000/svg" xmlns:xlink="http://www.w3.org/1999/xlink" x="0px" y="0px"
	 viewBox="0 0 39.8 19.8" style="enable-background:new 0 0 39.8 19.8;" xml:space="preserve">
<style type="text/css">
	.st0{display:none;}
	.st1{display:inline;fill:#FFFFFF;}
	.st2{fill:#4D206D;}
	.st3{fill:none;stroke:#FFFFFF;stroke-width:2;stroke-linecap:round;stroke-miterlimit:10;}
</style>
<g id="Capa_5" class="st0">
	<rect y="1.5" class="st1" width="39.8" height="18.3"/>
</g>
<g id="Capa_4">
	<polygon class="st2" points="9.5,0 30.1,0 22.2,16.6 17.8,16.6 	"/>
</g>
<g id="Capa_1">
	<path class="st2" d="M19.9,0h19.9c0,0-7.9-0.9-10.2,11c-0.4,2.2-2.4,4.8-5.4,5.5C23,16.8,21.5,17,19.9,17V0z"/>
	<path class="st2" d="M19.9,0L0,0c0,0,7.9-0.9,10.2,11c0.4,2.2,2.4,4.8,5.4,5.5c1.2,0.3,2.7,0.5,4.3,0.4V0z"/>
</g>
<g id="Capa_7">
	<circle class="st2" cx="19.9" cy="6.8" r="10.8"/>
</g>
<g id="Capa_3">
	<line class="st3" x1="14.5" y1="5.9" x2="19.9" y2="10.3"/>
	<line class="st3" x1="25.3" y1="5.9" x2="19.9" y2="10.3"/>
	<g id="Capa_6">
	</g>
</g>
</svg>
