<?xml version="1.0" encoding="utf-8"?>
<!-- Generator: Adobe Illustrator 24.3.0, SVG Export Plug-In . SVG Version: 6.00 Build 0)  -->
<svg version="1.1" id="Capa_1" xmlns="http://www.w3.org/2000/svg" xmlns:xlink="http://www.w3.org/1999/xlink" x="0px" y="0px"
	 viewBox="0 0 20 20" style="enable-background:new 0 0 20 20;" xml:space="preserve">
<g>
	<g id="Layer_2_1_">
		<path d="M10,10.7c-1.1,0-2.1-0.8-2.3-1.9c0-0.2,0.1-0.4,0.3-0.5c0,0,0,0,0.1,0c0.2,0,0.4,0.1,0.4,0.3c0.2,0.9,1,1.4,1.9,1.2
			c0.6-0.1,1.1-0.6,1.2-1.2c0-0.2,0.2-0.3,0.4-0.3c0.2,0,0.4,0.2,0.4,0.4c0,0,0,0,0,0.1C12.1,9.9,11.1,10.7,10,10.7z"/>
		<path d="M13.5,15.9H6.5c-0.7,0-1.2-0.5-1.2-1.2c0,0,0,0,0-0.1l0.3-6.8c0-0.6,0.6-1.1,1.2-1.1h6.4c0.6,0,1.2,0.5,1.2,1.1l0.3,6.8
			C14.7,15.4,14.2,15.9,13.5,15.9C13.6,15.9,13.5,15.9,13.5,15.9z M6.8,7.5c-0.2,0-0.4,0.2-0.4,0.4l-0.3,6.8c0,0.2,0.2,0.4,0.4,0.4
			c0,0,0,0,0,0h7.1c0.2,0,0.4-0.2,0.4-0.4c0,0,0,0,0,0l-0.3-6.8c0-0.2-0.2-0.4-0.4-0.4L6.8,7.5z"/>
		<path d="M12.4,7.1h-0.8V6.4c0-0.9-0.7-1.6-1.6-1.6c-0.9,0-1.6,0.7-1.6,1.6v0.7H7.6V6.4c0-1.3,1.1-2.4,2.4-2.4s2.4,1.1,2.4,2.4V7.1
			z"/>
	</g>
</g>
</svg>
