<?xml version="1.0" encoding="utf-8"?>
<!-- Generator: Adobe Illustrator 24.3.0, SVG Export Plug-In . SVG Version: 6.00 Build 0)  -->
<svg version="1.1" xmlns="http://www.w3.org/2000/svg" xmlns:xlink="http://www.w3.org/1999/xlink" x="0px" y="0px"
	 viewBox="0 0 30 30" style="enable-background:new 0 0 30 30;" xml:space="preserve">
<style type="text/css">
	.st0{fill:#1777F2;}
	.st1{fill:#FFFFFF;}
</style>
<g id="Capa_2">
	<path class="st0" d="M10.2,3.8L5.6,15l3.5,8.8l5.3,6.2c0,0,3-0.1,4.2-0.4c0.1,0,7-12.7,7-12.7L24.5,6.5L10.2,3.8z"/>
</g>
<g id="Capa_1">
	<g>
		<path class="st1" d="M15,0C6.7,0,0,6.7,0,15c0,8.1,6.4,14.7,14.4,15V19.6h-3.5v-4.1h3.5v-3c0-3.5,2.1-5.4,5.2-5.4
			c1,0,2.1,0.1,3.1,0.2v3.6h-2.1c-1.7,0-2,0.8-2,2v2.6h4.1l-0.5,4.1h-3.5v10C25.2,27.9,30,22,30,15C30,6.7,23.3,0,15,0z"/>
	</g>
</g>
</svg>
