<?xml version="1.0" encoding="utf-8"?>
<!-- Generator: Adobe Illustrator 24.3.0, SVG Export Plug-In . SVG Version: 6.00 Build 0)  -->
<svg version="1.1" id="Capa_1" xmlns="http://www.w3.org/2000/svg" xmlns:xlink="http://www.w3.org/1999/xlink" x="0px" y="0px"
	 viewBox="0 0 20 20" style="enable-background:new 0 0 20 20;" xml:space="preserve">
<style type="text/css">
	.st0{stroke:#000000;stroke-width:0.25;stroke-miterlimit:10;}
</style>
<g>
	<g>
		<g>
			<g>
				<path class="st0" d="M15.1,7c-0.2-0.2-0.5-0.4-0.9-0.4h-1.7v0c0-0.3-0.1-0.5-0.3-0.7c-0.2-0.2-0.4-0.3-0.7-0.3H8.4
					C8.2,5.7,7.9,5.8,7.8,6C7.6,6.2,7.5,6.4,7.5,6.7v0H5.8C5.4,6.7,5.1,6.8,4.9,7C4.7,7.3,4.5,7.6,4.5,7.9v5.2
					c0,0.3,0.1,0.6,0.4,0.9c0.2,0.2,0.5,0.4,0.9,0.4h8.5c0.3,0,0.6-0.1,0.9-0.4c0.2-0.2,0.4-0.5,0.4-0.9V7.9
					C15.5,7.6,15.3,7.3,15.1,7z M14.9,13.1L14.9,13.1c0,0.2-0.1,0.4-0.2,0.5c-0.1,0.1-0.3,0.2-0.5,0.2H5.8c-0.2,0-0.4-0.1-0.5-0.2
					c-0.1-0.1-0.2-0.3-0.2-0.5V7.9c0-0.2,0.1-0.4,0.2-0.5c0.1-0.1,0.3-0.2,0.5-0.2h2C7.9,7.2,8,7.1,8,6.9V6.6c0-0.1,0-0.2,0.1-0.3
					c0.1-0.1,0.2-0.1,0.3-0.1h3.1c0.1,0,0.2,0,0.3,0.1S12,6.5,12,6.6v0.3c0,0.2,0.1,0.3,0.3,0.3h2c0.2,0,0.4,0.1,0.5,0.2
					c0.1,0.1,0.2,0.3,0.2,0.5V13.1z"/>
				<path class="st0" d="M10,7.9c-0.7,0-1.4,0.3-1.8,0.7c-0.5,0.5-0.7,1.1-0.7,1.8s0.3,1.4,0.7,1.8C8.7,12.8,9.3,13,10,13
					s1.4-0.3,1.8-0.7c0.5-0.5,0.7-1.1,0.7-1.8s-0.3-1.4-0.7-1.8C11.4,8.2,10.7,7.9,10,7.9z M11.4,11.9c-0.4,0.4-0.9,0.6-1.4,0.6
					c-0.6,0-1-0.2-1.4-0.6C8.2,11.5,8,11,8,10.5c0-0.6,0.2-1,0.6-1.4C9,8.7,9.4,8.5,10,8.5c0.6,0,1,0.2,1.4,0.6
					c0.4,0.4,0.6,0.9,0.6,1.4C12,11,11.8,11.5,11.4,11.9z"/>
				<circle class="st0" cx="13.7" cy="8.4" r="0.5"/>
			</g>
		</g>
	</g>
	<g>
	</g>
	<g>
	</g>
	<g>
	</g>
	<g>
	</g>
	<g>
	</g>
	<g>
	</g>
	<g>
	</g>
	<g>
	</g>
	<g>
	</g>
	<g>
	</g>
	<g>
	</g>
	<g>
	</g>
	<g>
	</g>
	<g>
	</g>
	<g>
	</g>
</g>
</svg>
