<?xml version="1.0" encoding="utf-8"?>
<!-- Generator: Adobe Illustrator 24.3.0, SVG Export Plug-In . SVG Version: 6.00 Build 0)  -->
<svg version="1.1" id="Capa_1" xmlns="http://www.w3.org/2000/svg" xmlns:xlink="http://www.w3.org/1999/xlink" x="0px" y="0px"
	 viewBox="0 0 559.3 559.3" style="enable-background:new 0 0 559.3 559.3;" xml:space="preserve">
<style type="text/css">
	.st0{fill:#20ACE7;}
	.st1{fill:#F5F200;}
	.st2{fill:#F90679;}
</style>
<path class="st0" d="M259.6,495.6c-7.3,0-14.3-2.6-19.8-7.4c-20.7-18.1-40.6-35.1-58.2-50.1l-0.1-0.1
	c-51.6-44-96.1-81.9-127.1-119.3C19.8,276.9,3.6,237.3,3.6,194c0-42.1,14.4-80.9,40.6-109.3c26.5-28.7,62.9-44.6,102.4-44.6
	c29.6,0,56.6,9.3,80.4,27.8c12,9.3,22.9,20.7,32.5,34c9.6-13.3,20.5-24.7,32.5-34c23.8-18.4,50.9-27.8,80.4-27.8
	c39.5,0,75.9,15.8,102.4,44.6c26.2,28.4,40.6,67.2,40.6,109.3c0,43.3-16.1,82.9-50.8,124.7c-31,37.4-75.5,75.4-127.1,119.3
	c-17.6,15-37.6,32-58.3,50.2C274,493,266.9,495.6,259.6,495.6z"/>
<path class="st1" d="M291,523c-7.3,0-14.3-2.6-19.8-7.4c-20.7-18.1-40.6-35.1-58.2-50.1l-0.1-0.1c-51.6-44-96.1-81.9-127.1-119.3
	C51.2,304.3,35,264.6,35,221.3c0-42.1,14.4-80.9,40.6-109.3c26.5-28.7,62.9-44.6,102.4-44.6c29.6,0,56.6,9.3,80.4,27.8
	c12,9.3,22.9,20.7,32.5,34c9.6-13.3,20.5-24.7,32.5-34c23.8-18.4,50.9-27.8,80.4-27.8c39.5,0,75.9,15.8,102.4,44.6
	c26.2,28.4,40.6,67.2,40.6,109.3c0,43.3-16.1,82.9-50.8,124.7c-31,37.4-75.5,75.4-127.1,119.3c-17.6,15-37.6,32-58.3,50.2
	C305.4,520.3,298.3,523,291,523z"/>
<path class="st2" d="M278.1,505.6c-7.3,0-14.3-2.6-19.8-7.4c-20.7-18.1-40.6-35.1-58.2-50.1L200,448c-51.6-44-96.1-81.9-127.1-119.3
	C38.2,286.9,22.1,247.3,22.1,204c0-42.1,14.4-80.9,40.6-109.3c26.5-28.7,62.9-44.6,102.4-44.6c29.6,0,56.6,9.3,80.4,27.8
	c12,9.3,22.9,20.7,32.5,34c9.6-13.3,20.5-24.7,32.5-34c23.8-18.4,50.9-27.8,80.4-27.8c39.5,0,75.9,15.8,102.4,44.6
	c26.2,28.4,40.6,67.2,40.6,109.3c0,43.3-16.1,82.9-50.8,124.7c-31,37.4-75.5,75.4-127.1,119.3c-17.6,15-37.6,32-58.3,50.2
	C292.4,503,285.4,505.6,278.1,505.6z"/>
<path d="M278.1,505.6c-7.3,0-14.3-2.6-19.8-7.4c-20.7-18.1-40.6-35.1-58.2-50.1L200,448c-51.6-44-96.1-81.9-127.1-119.3
	C38.2,286.9,22.1,247.3,22.1,204c0-42.1,14.4-80.9,40.6-109.3c26.5-28.7,62.9-44.6,102.4-44.6c29.6,0,56.6,9.3,80.4,27.8
	c12,9.3,22.9,20.7,32.5,34c9.6-13.3,20.5-24.7,32.5-34c23.8-18.4,50.9-27.8,80.4-27.8c39.5,0,75.9,15.8,102.4,44.6
	c26.2,28.4,40.6,67.2,40.6,109.3c0,43.3-16.1,82.9-50.8,124.7c-31,37.4-75.5,75.4-127.1,119.3c-17.6,15-37.6,32-58.3,50.2
	C292.4,503,285.4,505.6,278.1,505.6z M165.1,80.1c-31.1,0-59.6,12.4-80.4,34.9c-21.1,22.9-32.7,54.4-32.7,89
	c0,36.4,13.5,69,43.9,105.6c29.3,35.4,73,72.6,123.5,115.6l0.1,0.1c17.7,15.1,37.7,32.1,58.5,50.3c21-18.3,41-35.3,58.7-50.4
	c50.5-43.1,94.1-80.2,123.5-115.6c30.3-36.6,43.9-69.2,43.9-105.6c0-34.5-11.6-66.1-32.7-89c-20.8-22.5-49.3-34.9-80.4-34.9
	c-22.8,0-43.7,7.2-62.1,21.5c-16.4,12.7-27.9,28.8-34.6,40c-3.5,5.8-9.5,9.2-16.3,9.2s-12.8-3.5-16.3-9.2
	c-6.7-11.2-18.2-27.3-34.6-40C208.8,87.3,187.9,80.1,165.1,80.1z"/>
</svg>
