<?xml version="1.0" encoding="utf-8"?>
<!-- Generator: Adobe Illustrator 24.3.0, SVG Export Plug-In . SVG Version: 6.00 Build 0)  -->
<svg version="1.1" id="Capa_1" xmlns="http://www.w3.org/2000/svg" xmlns:xlink="http://www.w3.org/1999/xlink" x="0px" y="0px"
	 viewBox="0 0 2130.9 552.8" style="enable-background:new 0 0 2130.9 552.8;" xml:space="preserve">
<style type="text/css">
	.st0{fill:#1D1D1B;}
	.st1{clip-path:url(#SVGID_2_);fill:#00ACE7;}
</style>
<path class="st0" d="M1342.6,366.7c-2.7-0.8-5.4-1.2-8-1.2c-3.7,0-6.6,0.7-8.8,2.1c-2.2,1.4-3.4,3.6-3.4,6.4c0,2,0.6,3.6,1.8,4.8
	c1.2,1.2,2.7,2.3,4.5,3c1.8,0.8,4.3,1.6,7.5,2.6c4,1.2,7.2,2.3,9.7,3.5c2.5,1.1,4.6,2.8,6.4,4.9c1.8,2.2,2.6,5,2.6,8.5
	c0,5.2-2,9.2-5.9,11.9c-4,2.7-8.9,4.1-14.8,4.1c-4.2,0-8.2-0.7-12.1-2.1c-3.9-1.4-7.1-3.4-9.8-5.9l3-5.3c2.5,2.3,5.4,4.1,8.8,5.4
	c3.4,1.3,6.9,2,10.4,2c3.9,0,7-0.8,9.5-2.4c2.5-1.6,3.7-4,3.7-7c0-2.1-0.6-3.9-1.9-5.2c-1.2-1.4-2.8-2.4-4.7-3.2
	c-1.9-0.8-4.4-1.7-7.7-2.7c-3.9-1.2-7-2.3-9.4-3.4c-2.4-1.1-4.5-2.7-6.2-4.8c-1.7-2.1-2.5-4.8-2.5-8.2c0-5.1,1.9-8.9,5.7-11.4
	c3.8-2.6,8.5-3.8,14.1-3.8c3.3,0,6.5,0.4,9.6,1.3c3.1,0.9,5.8,2.1,8.2,3.6l-2.9,5.6C1347.8,368.6,1345.3,367.5,1342.6,366.7"/>
<path class="st0" d="M1407.5,363.2c4.4,2.5,7.8,5.9,10.3,10.3c2.5,4.4,3.7,9.4,3.7,14.9c0,5.6-1.2,10.7-3.7,15.1
	c-2.5,4.4-5.9,7.9-10.3,10.3c-4.4,2.5-9.4,3.7-14.9,3.7c-5.6,0-10.5-1.2-14.9-3.7c-4.4-2.5-7.8-5.9-10.3-10.3
	c-2.5-4.4-3.7-9.5-3.7-15.1c0-5.6,1.2-10.5,3.7-14.9c2.5-4.4,5.9-7.8,10.3-10.3c4.4-2.5,9.4-3.7,14.9-3.7
	C1398.2,359.5,1403.2,360.8,1407.5,363.2 M1381.4,368.8c-3.3,1.9-5.9,4.6-7.7,8c-1.8,3.4-2.7,7.4-2.7,11.8c0,4.5,0.9,8.4,2.7,11.9
	c1.8,3.4,4.4,6.1,7.7,8c3.3,1.9,7,2.9,11.2,2.9c4.2,0,7.9-1,11.2-2.9c3.3-1.9,5.9-4.6,7.7-8c1.8-3.4,2.7-7.4,2.7-11.9
	c0-4.4-0.9-8.3-2.7-11.8c-1.8-3.4-4.4-6.1-7.7-8c-3.3-1.9-7-2.9-11.2-2.9C1388.4,365.9,1384.7,366.9,1381.4,368.8"/>
<rect x="1437.7" y="335.8" class="st0" width="7.4" height="81.5"/>
<path class="st0" d="M1516.6,359.8v57.6h-7.5v-13.7c-1.9,4.5-4.7,8-8.5,10.3c-3.8,2.3-8.3,3.6-13.7,3.6c-6.8,0-12.1-2-16-6
	c-3.8-4-5.8-9.5-5.8-16.4v-35.4h7.5v33.6c0,5.4,1.5,9.6,4.4,12.7c3,3,7,4.6,12.2,4.6c6.1-0.1,11-2.2,14.5-6.3
	c3.5-4.1,5.3-9.6,5.3-16.3v-28.2H1516.6z"/>
<path class="st0" d="M1560.9,366c-4.1,0-7.8,1-11.1,2.9c-3.3,1.9-5.9,4.6-7.7,8c-1.8,3.4-2.7,7.3-2.7,11.7c0,4.4,0.9,8.3,2.7,11.8
	c1.8,3.4,4.4,6.1,7.7,8c3.3,1.9,7,2.9,11.1,2.9c3.7,0,7.2-0.7,10.3-2c3.1-1.3,5.7-3.2,7.9-5.7l4.2,4.4c-2.6,3.1-5.8,5.5-9.7,7.1
	c-3.9,1.7-8.2,2.5-13,2.5c-5.5,0-10.4-1.2-14.7-3.7c-4.3-2.5-7.7-5.9-10.2-10.3c-2.5-4.4-3.7-9.4-3.7-15c0-5.6,1.2-10.6,3.7-15
	c2.5-4.4,5.8-7.9,10.2-10.3c4.3-2.5,9.2-3.7,14.7-3.7c4.5,0,8.5,0.7,12.2,2.2c3.7,1.5,6.9,3.5,9.5,6.1l-4.2,4.9
	C1573.4,368.3,1567.7,366,1560.9,366"/>
<path class="st0" d="M1607,339.5c0.9,1,1.4,2.2,1.4,3.7c0,1.5-0.5,2.7-1.5,3.7c-1,1-2.2,1.5-3.6,1.5c-1.5,0-2.7-0.5-3.7-1.5
	c-1-1-1.5-2.3-1.5-3.7c0-1.5,0.5-2.7,1.5-3.7c1-1,2.2-1.5,3.7-1.5S1606,338.5,1607,339.5 M1599.6,359.8h7.4v57.6h-7.4V359.8z"/>
<path class="st0" d="M1666.4,363.2c4.4,2.5,7.8,5.9,10.3,10.3c2.5,4.4,3.7,9.4,3.7,14.9c0,5.6-1.2,10.7-3.7,15.1
	c-2.5,4.4-5.9,7.9-10.3,10.3c-4.4,2.5-9.4,3.7-14.9,3.7c-5.6,0-10.5-1.2-14.9-3.7c-4.4-2.5-7.8-5.9-10.3-10.3
	c-2.5-4.4-3.7-9.5-3.7-15.1c0-5.6,1.2-10.5,3.7-14.9c2.5-4.4,5.9-7.8,10.3-10.3c4.4-2.5,9.4-3.7,14.9-3.7
	C1657,359.5,1662,360.8,1666.4,363.2 M1640.3,368.8c-3.3,1.9-5.9,4.6-7.7,8c-1.8,3.4-2.7,7.4-2.7,11.8c0,4.5,0.9,8.4,2.7,11.9
	c1.8,3.4,4.4,6.1,7.7,8c3.3,1.9,7,2.9,11.2,2.9c4.2,0,7.9-1,11.2-2.9c3.3-1.9,5.9-4.6,7.7-8c1.8-3.4,2.7-7.4,2.7-11.9
	c0-4.4-0.9-8.3-2.7-11.8c-1.8-3.4-4.4-6.1-7.7-8c-3.3-1.9-7-2.9-11.2-2.9C1647.3,365.9,1643.6,366.9,1640.3,368.8"/>
<path class="st0" d="M1742.4,365.5c3.9,4,5.9,9.5,5.9,16.4v35.4h-7.5v-33.6c0-5.4-1.5-9.7-4.5-12.7c-3-3.1-7.2-4.6-12.5-4.6
	c-5.9,0.1-10.7,1.9-14.2,5.5c-3.6,3.6-5.6,8.4-6.1,14.5v31h-7.4v-57.6h7.4v13.4c2-4.5,4.9-7.8,8.7-10.1c3.8-2.3,8.5-3.4,14-3.5
	C1733,359.5,1738.4,361.5,1742.4,365.5"/>
<path class="st0" d="M1810.7,368.1c4.7,5.7,6.8,13.3,6.5,22.9h-48c0.5,6.2,2.8,11.1,6.8,14.9c4,3.8,9,5.7,14.9,5.7
	c3.7,0,7.1-0.7,10.2-2c3.1-1.3,5.9-3.2,8.1-5.6l4.2,4.2c-2.8,3-6.1,5.3-10,7c-3.9,1.6-8.2,2.5-12.9,2.5c-5.6,0-10.5-1.2-14.8-3.7
	c-4.3-2.5-7.7-5.9-10.2-10.3c-2.5-4.4-3.7-9.4-3.7-15c0-5.6,1.2-10.6,3.7-15c2.5-4.4,5.8-7.9,10.2-10.3c4.3-2.5,9.2-3.7,14.6-3.7
	C1799.2,359.5,1806,362.4,1810.7,368.1 M1810.6,385.2c-0.4-6-2.4-10.8-6-14.3c-3.6-3.5-8.4-5.3-14.2-5.3c-5.8,0-10.6,1.8-14.5,5.4
	c-3.9,3.6-6.1,8.3-6.7,14.3H1810.6z"/>
<path class="st0" d="M1855,366.7c-2.7-0.8-5.4-1.2-8-1.2c-3.7,0-6.6,0.7-8.8,2.1c-2.2,1.4-3.4,3.6-3.4,6.4c0,2,0.6,3.6,1.8,4.8
	c1.2,1.2,2.7,2.3,4.5,3c1.8,0.8,4.3,1.6,7.5,2.6c4,1.2,7.2,2.3,9.7,3.5c2.5,1.1,4.6,2.8,6.4,4.9c1.8,2.2,2.6,5,2.6,8.5
	c0,5.2-2,9.2-5.9,11.9c-4,2.7-8.9,4.1-14.8,4.1c-4.2,0-8.2-0.7-12.1-2.1c-3.9-1.4-7.1-3.4-9.8-5.9l3-5.3c2.5,2.3,5.4,4.1,8.8,5.4
	c3.4,1.3,6.9,2,10.4,2c3.9,0,7-0.8,9.5-2.4c2.5-1.6,3.7-4,3.7-7c0-2.1-0.6-3.9-1.9-5.2c-1.2-1.4-2.8-2.4-4.7-3.2
	c-1.9-0.8-4.4-1.7-7.7-2.7c-3.9-1.2-7-2.3-9.4-3.4c-2.4-1.1-4.5-2.7-6.2-4.8c-1.7-2.1-2.5-4.8-2.5-8.2c0-5.1,1.9-8.9,5.7-11.4
	c3.8-2.6,8.5-3.8,14.1-3.8c3.3,0,6.5,0.4,9.6,1.3c3.1,0.9,5.8,2.1,8.2,3.6l-2.9,5.6C1860.1,368.6,1857.7,367.5,1855,366.7"/>
<path class="st0" d="M1370,460.2v51.5c0,5.6-1.2,10.4-3.5,14.6c-2.3,4.2-5.7,7.4-10,9.6c-4.4,2.2-9.4,3.4-15.1,3.4
	c-8.5,0-16.4-2.9-23.6-8.8l3.5-5.3c2.9,2.6,6,4.5,9.2,5.8c3.2,1.3,6.7,2,10.5,2c6.6,0,11.8-1.9,15.8-5.8c3.9-3.8,5.9-9,5.9-15.4
	v-9.3c-2.1,4-5,7.2-8.8,9.4c-3.8,2.3-8.2,3.4-13.2,3.4c-5.1,0-9.7-1.2-13.7-3.6s-7.1-5.7-9.3-9.9c-2.2-4.2-3.4-9-3.4-14.3
	c0-5.3,1.1-10.1,3.4-14.3c2.2-4.2,5.4-7.4,9.4-9.8c4-2.3,8.6-3.5,13.7-3.5c5,0,9.3,1.1,13.1,3.4c3.7,2.2,6.7,5.4,8.8,9.5v-12.6H1370
	z M1352.6,506.6c3.1-1.9,5.6-4.4,7.4-7.7c1.8-3.3,2.6-7,2.6-11.1c0-4.2-0.9-7.9-2.6-11.2c-1.8-3.3-4.2-5.9-7.4-7.7
	c-3.1-1.9-6.7-2.8-10.7-2.8c-4,0-7.5,0.9-10.7,2.8c-3.1,1.9-5.6,4.4-7.4,7.7c-1.8,3.3-2.7,7-2.7,11.2s0.9,7.9,2.7,11.1
	c1.8,3.3,4.2,5.8,7.4,7.7c3.1,1.9,6.7,2.8,10.7,2.8C1345.9,509.4,1349.5,508.5,1352.6,506.6"/>
<path class="st0" d="M1405.5,463.6c3.6-2.3,7.8-3.5,12.8-3.6v6.9c-6.1-0.1-11,1.7-14.7,5.3c-3.7,3.6-5.8,8.6-6.3,14.8v30.8h-7.4
	v-57.6h7.4v13.4C1399.2,469.2,1402,465.9,1405.5,463.6"/>
<path class="st0" d="M1463.4,517.8l-0.1-9.7c-2.3,3.4-5.2,5.9-8.9,7.5c-3.7,1.6-7.9,2.5-12.6,2.5c-3.9,0-7.3-0.8-10.3-2.3
	c-3-1.5-5.3-3.6-6.9-6.2c-1.6-2.6-2.4-5.6-2.4-8.9c0-5,1.9-8.9,5.8-11.8c3.8-2.9,9.1-4.3,15.9-4.3h19.3v-4.4c0-4.5-1.4-8.1-4.1-10.5
	c-2.7-2.5-6.7-3.7-11.9-3.7c-6.1,0-12.3,2.3-18.6,6.9l-3.3-5.1c3.9-2.7,7.6-4.7,11.1-6c3.5-1.3,7.5-1.9,12.1-1.9
	c7,0,12.3,1.7,16.1,5.2c3.8,3.5,5.7,8.3,5.8,14.4l0.1,38.1H1463.4z M1456.1,508.4c3.6-2.4,5.9-5.7,7.2-10v-7.9h-18.6
	c-5.1,0-8.9,0.8-11.5,2.5c-2.6,1.7-4,4.2-4,7.6c0,3.4,1.3,6.2,3.8,8.3c2.5,2.1,5.9,3.1,10,3.1C1448.3,512,1452.6,510.8,1456.1,508.4
	 M1455.8,435.7l7.6,3.3l-13.8,11l-6.6-0.8L1455.8,435.7z"/>
<path class="st0" d="M1502.4,445.2c-2.1,2.1-3.1,4.9-3.1,8.5v8.1h16.9v5.8h-16.9v50.2h-7.4v-50.2h-7.4v-5.8h7.4v-7.2
	c0-3.8,0.8-7.2,2.4-10c1.6-2.9,3.8-5.1,6.5-6.6c2.7-1.5,5.6-2.3,8.8-2.3c3.6,0,7,0.9,10.1,2.6l-1.9,5.9c-2.6-1.4-5.2-2.1-7.7-2.1
	C1507.1,442,1504.5,443.1,1502.4,445.2 M1533.4,440c1,1,1.4,2.2,1.4,3.7c0,1.5-0.5,2.7-1.5,3.7c-1,1-2.2,1.5-3.6,1.5
	c-1.5,0-2.7-0.5-3.7-1.5c-1-1-1.5-2.3-1.5-3.7c0-1.5,0.5-2.7,1.5-3.7c1-1,2.2-1.5,3.7-1.5C1531.2,438.5,1532.5,439,1533.4,440
	 M1526.1,460.2h7.4v57.6h-7.4V460.2z"/>
<path class="st0" d="M1577.7,466.5c-4.1,0-7.8,1-11.1,2.9c-3.3,1.9-5.9,4.6-7.7,8c-1.8,3.4-2.7,7.3-2.7,11.7c0,4.4,0.9,8.3,2.7,11.8
	c1.8,3.4,4.4,6.1,7.7,8c3.3,1.9,7,2.9,11.1,2.9c3.7,0,7.2-0.7,10.3-2c3.1-1.3,5.7-3.2,7.9-5.7l4.2,4.4c-2.6,3.1-5.8,5.5-9.7,7.1
	c-3.9,1.7-8.2,2.5-13,2.5c-5.5,0-10.4-1.2-14.7-3.7c-4.3-2.5-7.7-5.9-10.2-10.3c-2.5-4.4-3.7-9.4-3.7-15c0-5.6,1.2-10.6,3.7-15
	c2.5-4.4,5.8-7.9,10.2-10.3c4.3-2.5,9.2-3.7,14.7-3.7c4.5,0,8.5,0.7,12.2,2.2c3.7,1.5,6.9,3.5,9.5,6.1l-4.2,4.9
	C1590.2,468.8,1584.5,466.5,1577.7,466.5"/>
<path class="st0" d="M1649.2,517.8l-0.1-9.7c-2.3,3.4-5.2,5.9-8.9,7.5c-3.7,1.6-7.9,2.5-12.6,2.5c-3.9,0-7.3-0.8-10.3-2.3
	c-3-1.5-5.3-3.6-6.9-6.2c-1.6-2.6-2.4-5.6-2.4-8.9c0-5,1.9-8.9,5.8-11.8c3.8-2.9,9.1-4.3,15.9-4.3h19.3v-4.4c0-4.5-1.4-8.1-4.1-10.5
	c-2.7-2.5-6.7-3.7-11.9-3.7c-6.1,0-12.3,2.3-18.6,6.9l-3.3-5.1c3.9-2.7,7.6-4.7,11.1-6c3.5-1.3,7.5-1.9,12.1-1.9
	c7,0,12.3,1.7,16.1,5.2c3.8,3.5,5.7,8.3,5.8,14.4l0.1,38.1H1649.2z M1641.9,508.4c3.6-2.4,5.9-5.7,7.2-10v-7.9h-18.6
	c-5.1,0-8.9,0.8-11.5,2.5c-2.6,1.7-4,4.2-4,7.6c0,3.4,1.3,6.2,3.8,8.3c2.5,2.1,5.9,3.1,10,3.1C1634,512,1638.3,510.8,1641.9,508.4"
	/>
<path class="st0" d="M1698.5,467.2c-2.7-0.8-5.4-1.2-8-1.2c-3.7,0-6.6,0.7-8.8,2.1c-2.2,1.4-3.4,3.6-3.4,6.4c0,2,0.6,3.6,1.8,4.8
	c1.2,1.2,2.7,2.3,4.5,3c1.8,0.8,4.3,1.6,7.5,2.6c4,1.2,7.2,2.3,9.7,3.5c2.5,1.1,4.6,2.8,6.4,4.9c1.8,2.2,2.6,5,2.6,8.5
	c0,5.2-2,9.2-5.9,11.9c-4,2.7-8.9,4.1-14.8,4.1c-4.2,0-8.2-0.7-12.1-2.1c-3.9-1.4-7.1-3.4-9.8-5.9l3-5.3c2.5,2.3,5.4,4.1,8.8,5.4
	c3.4,1.3,6.9,2,10.4,2c3.9,0,7-0.8,9.5-2.4c2.5-1.6,3.7-4,3.7-7c0-2.1-0.6-3.9-1.9-5.2c-1.2-1.4-2.8-2.4-4.7-3.2
	c-1.9-0.8-4.4-1.7-7.7-2.7c-3.9-1.2-7-2.3-9.4-3.4c-2.4-1.1-4.5-2.7-6.2-4.8c-1.7-2.1-2.5-4.8-2.5-8.2c0-5.1,1.9-8.9,5.7-11.4
	c3.8-2.6,8.5-3.8,14.1-3.8c3.3,0,6.5,0.4,9.6,1.3s5.8,2.1,8.2,3.6l-2.9,5.6C1703.6,469,1701.2,468,1698.5,467.2"/>
<path class="st0" d="M1793.6,463.7c4.4,2.5,7.8,5.9,10.3,10.3c2.5,4.4,3.7,9.4,3.7,14.9c0,5.6-1.2,10.7-3.7,15.1
	c-2.5,4.4-5.9,7.9-10.3,10.3c-4.4,2.5-9.4,3.7-14.9,3.7c-5.6,0-10.5-1.2-14.9-3.7c-4.4-2.5-7.8-5.9-10.3-10.3
	c-2.5-4.4-3.7-9.5-3.7-15.1c0-5.6,1.2-10.5,3.7-14.9c2.5-4.4,5.9-7.8,10.3-10.3c4.4-2.5,9.4-3.7,14.9-3.7
	C1784.2,460,1789.2,461.2,1793.6,463.7 M1767.5,469.2c-3.3,1.9-5.9,4.6-7.7,8c-1.8,3.4-2.7,7.4-2.7,11.8c0,4.5,0.9,8.4,2.7,11.9
	c1.8,3.4,4.4,6.1,7.7,8c3.3,1.9,7,2.9,11.2,2.9c4.2,0,7.9-1,11.2-2.9c3.3-1.9,5.9-4.6,7.7-8c1.8-3.4,2.7-7.4,2.7-11.9
	c0-4.4-0.9-8.3-2.7-11.8c-1.8-3.4-4.4-6.1-7.7-8c-3.3-1.9-7-2.9-11.2-2.9C1774.5,466.4,1770.7,467.3,1767.5,469.2"/>
<path class="st0" d="M1869.5,466c3.9,4,5.9,9.5,5.9,16.4v35.4h-7.5v-33.6c0-5.4-1.5-9.7-4.5-12.7c-3-3.1-7.2-4.6-12.5-4.6
	c-5.9,0.1-10.7,1.9-14.2,5.5c-3.6,3.6-5.6,8.4-6.1,14.5v31h-7.4v-57.6h7.4v13.4c2-4.5,4.9-7.8,8.7-10.1c3.8-2.3,8.5-3.4,14-3.5
	C1860.2,460,1865.6,462,1869.5,466"/>
<rect x="1895.6" y="436.3" class="st0" width="7.4" height="81.5"/>
<path class="st0" d="M1932.4,440c1,1,1.4,2.2,1.4,3.7c0,1.5-0.5,2.7-1.5,3.7c-1,1-2.2,1.5-3.6,1.5c-1.5,0-2.7-0.5-3.7-1.5
	c-1-1-1.5-2.3-1.5-3.7c0-1.5,0.5-2.7,1.5-3.7c1-1,2.2-1.5,3.7-1.5C1930.3,438.5,1931.5,439,1932.4,440 M1925.1,460.2h7.4v57.6h-7.4
	V460.2z"/>
<path class="st0" d="M2000.1,466c3.9,4,5.9,9.5,5.9,16.4v35.4h-7.5v-33.6c0-5.4-1.5-9.7-4.5-12.7c-3-3.1-7.2-4.6-12.5-4.6
	c-5.9,0.1-10.7,1.9-14.2,5.5c-3.6,3.6-5.6,8.4-6.1,14.5v31h-7.4v-57.6h7.4v13.4c2-4.5,4.9-7.8,8.7-10.1c3.8-2.3,8.5-3.4,14-3.5
	C1990.8,460,1996.2,462,2000.1,466"/>
<path class="st0" d="M2068.5,468.5c4.7,5.7,6.8,13.3,6.5,22.9h-48c0.5,6.2,2.8,11.1,6.8,14.9c4,3.8,9,5.7,14.9,5.7
	c3.7,0,7.1-0.7,10.2-2c3.1-1.3,5.9-3.2,8.1-5.6l4.2,4.2c-2.8,3-6.1,5.3-10,7c-3.9,1.6-8.2,2.5-12.9,2.5c-5.6,0-10.5-1.2-14.8-3.7
	c-4.3-2.5-7.7-5.9-10.2-10.3c-2.5-4.4-3.7-9.4-3.7-15c0-5.6,1.2-10.6,3.7-15c2.5-4.4,5.8-7.9,10.2-10.3c4.3-2.5,9.2-3.7,14.6-3.7
	C2057,460,2063.8,462.8,2068.5,468.5 M2068.4,485.7c-0.4-6-2.4-10.8-6-14.3c-3.6-3.5-8.4-5.3-14.2-5.3c-5.8,0-10.6,1.8-14.5,5.4
	c-3.9,3.6-6.1,8.3-6.7,14.3H2068.4z"/>
<path class="st0" d="M124.2,25.9c8.1,8.3,12.1,18.9,12.1,32c0,13.1-4.1,23.8-12.1,32c-8.1,8.3-18.5,12.4-31.2,12.4
	c-12.4,0-22.6-4.2-30.7-12.7c-8.1-8.4-12.1-19-12.1-31.8c0-13.1,4-23.8,12.1-32c8.1-8.3,18.3-12.4,30.7-12.4
	C105.7,13.5,116.1,17.7,124.2,25.9 M53.7,137h79.5v277.9H53.7V137z"/>
<path class="st0" d="M606.5,162.5c18.1,19.1,27.1,45,27.1,77.7v174.6h-79V263.5c0-17.9-4.8-31.8-14.5-41.8c-9.6-10-22.7-15-39.3-15
	c-18.9,0.3-33.9,7.1-44.9,20.1c-11,13.1-16.5,30-16.5,50.6v137.4h-79V263.5c0-17.6-4.7-31.4-14.2-41.6c-9.5-10.2-22.5-15.2-39-15.2
	c-18.9,0.3-34,7.1-45.2,20.1c-11.2,13.1-16.8,30-16.8,50.6v137.4h-79.5V137h79.5v48c19.3-33.4,50.6-50.4,94-51.1
	c23.4,0,43.2,5.6,59.4,16.8c16.2,11.2,27.7,26.9,34.6,47.3c8.9-21,21.9-36.8,39-47.5c17-10.7,37.4-16.2,61.2-16.5
	C564.1,133.9,588.4,143.4,606.5,162.5"/>
<path class="st0" d="M908.3,152.2c19.8,11.9,35.1,28.7,46,50.4c10.8,21.7,16.3,46.7,16.3,74.9c0,27.9-5.3,52.4-16,73.6
	c-10.7,21.2-25.7,37.6-45.2,49.3c-19.5,11.7-42.1,17.6-67.9,17.6c-19.3,0-36.4-3.7-51.4-11.1c-15-7.4-27.6-18.2-38-32.3V515h-79.5
	V137h79.5v40.8c10-14.1,22.5-24.9,37.4-32.3c15-7.4,31.8-11.1,50.4-11.1C865.7,134.4,888.5,140.3,908.3,152.2 M870.9,330.4
	c12.7-14.3,19.1-32.8,19.1-55.5c0-22.4-6.4-40.7-19.1-55c-12.7-14.3-29.3-21.4-49.6-21.4c-20.3,0-36.9,7.1-49.8,21.4
	c-12.9,14.3-19.4,32.6-19.4,55c0,23.1,6.5,41.7,19.4,55.8c12.9,14.1,29.5,21.2,49.8,21.2C841.6,351.8,858.2,344.7,870.9,330.4"/>
<path class="st0" d="M1119.8,147.8c15.5-8.9,33.6-13.6,54.2-13.9v74.9c-2.8-0.3-6.9-0.5-12.4-0.5c-24.5,0-43.8,6.6-58.1,19.9
	c-14.3,13.3-21.4,30.9-21.4,52.9v133.8h-79.5V137h79.5v50.1C1091.8,169.9,1104.3,156.8,1119.8,147.8"/>
<g>
	<g>
		<defs>
			<rect id="SVGID_1_" x="1193.2" y="13.5" width="86.3" height="88.8"/>
		</defs>
		<clipPath id="SVGID_2_">
			<use xlink:href="#SVGID_1_"  style="overflow:visible;"/>
		</clipPath>
		<path class="st1" d="M1267.3,25.9c8.1,8.3,12.1,18.9,12.1,32c0,13.1-4.1,23.8-12.1,32c-8.1,8.3-18.5,12.4-31.2,12.4
			c-12.4,0-22.6-4.2-30.7-12.7c-8.1-8.4-12.1-19-12.1-31.8c0-13.1,4-23.8,12.1-32c8.1-8.3,18.3-12.4,30.7-12.4
			C1248.8,13.5,1259.2,17.7,1267.3,25.9"/>
	</g>
</g>
<rect x="1196.8" y="137" class="st0" width="79.5" height="277.9"/>
<path class="st0" d="M1749.6,43.4c18.1,19.1,27.1,45,27.1,77.7v174.6h-79V144.4c0-17.9-4.8-31.8-14.5-41.8c-9.6-10-22.7-15-39.3-15
	c-18.9,0.3-33.9,7.1-44.9,20.1c-11,13.1-16.5,30-16.5,50.6v137.4h-79V144.4c0-17.6-4.7-31.4-14.2-41.6c-9.5-10.2-22.5-15.2-39-15.2
	c-18.9,0.3-34,7.1-45.2,20.1c-11.2,13.1-16.8,30-16.8,50.6v137.4h-79.5V17.9h79.5v48c19.3-33.4,50.6-50.4,94-51.1
	c23.4,0,43.2,5.6,59.4,16.8c16.2,11.2,27.7,26.9,34.6,47.3c8.9-21,21.9-36.8,39-47.5c17-10.7,37.4-16.2,61.2-16.5
	C1707.1,14.8,1731.5,24.3,1749.6,43.4"/>
<path class="st0" d="M2080.9,17.9v277.9h-79v-49.1c-18.9,34.8-49.9,52.2-93,52.2c-30.6,0-55-9.6-73.1-28.7
	c-18.1-19.1-27.1-45-27.1-77.7V17.9h79.5v151.8c0,17.6,4.6,31.3,13.9,41.3c9.3,10,22,15,38.2,15c18.9-0.3,33.9-7.1,44.9-20.1
	c11-13.1,16.5-30,16.5-50.6V17.9H2080.9z"/>
</svg>
