<?xml version="1.0" encoding="utf-8"?>
<!-- Generator: Adobe Illustrator 24.3.0, SVG Export Plug-In . SVG Version: 6.00 Build 0)  -->
<svg version="1.1" id="Capa_1" xmlns="http://www.w3.org/2000/svg" xmlns:xlink="http://www.w3.org/1999/xlink" x="0px" y="0px"
	 viewBox="0 0 20 20" style="enable-background:new 0 0 20 20;" xml:space="preserve">
<style type="text/css">
	.st0{stroke:#000000;stroke-width:0.25;stroke-miterlimit:10;}
</style>
<path class="st0" d="M12.4,15.3H7.6c-0.4,0-0.7-0.3-0.7-0.7V9.2L6.1,9.5c-0.2,0.1-0.4,0.1-0.5,0C5.4,9.4,5.2,9.3,5.2,9.1L4.7,7.3
	C4.7,7,4.8,6.7,5,6.6l2.5-1.7c0.1-0.1,0.2-0.1,0.4-0.1h4.2c0.1,0,0.3,0,0.4,0.1L15,6.6c0.2,0.2,0.3,0.4,0.3,0.7l-0.5,1.8
	c0,0.2-0.2,0.3-0.3,0.4c-0.2,0.1-0.3,0.1-0.5,0.1l-0.9-0.3v5.4C13.1,15,12.8,15.3,12.4,15.3z M7.1,8.7c0,0,0.1,0,0.1,0
	c0.1,0,0.1,0.1,0.1,0.2v5.7c0,0.1,0.1,0.2,0.2,0.2h4.9c0.1,0,0.2-0.1,0.2-0.2V8.9c0-0.1,0-0.1,0.1-0.2c0.1,0,0.1-0.1,0.2,0l1.2,0.4
	c0,0,0.1,0,0.2,0c0.1,0,0.1-0.1,0.1-0.1l0.5-1.8c0-0.1,0-0.2-0.1-0.2l-2.6-1.8c0,0-0.1,0-0.1,0H7.9c0,0-0.1,0-0.1,0L5.3,6.9
	C5.2,7,5.1,7.1,5.2,7.2L5.6,9c0,0.1,0.1,0.1,0.1,0.1c0.1,0,0.1,0,0.2,0L7.1,8.7C7.1,8.7,7.1,8.7,7.1,8.7L7.1,8.7z"/>
<path class="st0" d="M10,6.9c-1,0-1.8-0.8-1.8-1.8V4.9c0-0.1,0.1-0.2,0.2-0.2h3.1c0.1,0,0.2,0.1,0.2,0.2v0.2C11.8,6.1,11,6.9,10,6.9
	z M8.7,5.1c0,0.7,0.6,1.3,1.3,1.3s1.3-0.6,1.3-1.3H8.7z"/>
<path class="st0" d="M11.5,8.7h-0.9c-0.1,0-0.2-0.1-0.2-0.2s0.1-0.2,0.2-0.2h0.9c0.1,0,0.2,0.1,0.2,0.2S11.7,8.7,11.5,8.7z"/>
</svg>
