<?xml version="1.0" encoding="utf-8"?>
<!-- Generator: Adobe Illustrator 24.3.0, SVG Export Plug-In . SVG Version: 6.00 Build 0)  -->
<svg version="1.1" id="Capa_1" xmlns="http://www.w3.org/2000/svg" xmlns:xlink="http://www.w3.org/1999/xlink" x="0px" y="0px"
	 viewBox="0 0 30 30" style="enable-background:new 0 0 30 30;" xml:space="preserve">
<style type="text/css">
	.st0{fill:#FFFFFF;}
</style>
<g>
	<path class="st0" d="M8.7,0C3.9,0,0,3.9,0,8.7v12.6C0,26.1,3.9,30,8.7,30h12.6c4.8,0,8.7-3.9,8.7-8.7V8.7C30,3.9,26.1,0,21.3,0H8.7
		z M8.7,2.3h12.6c3.5,0,6.4,2.8,6.4,6.4v12.6c0,3.5-2.8,6.4-6.4,6.4H8.7c-3.5,0-6.4-2.8-6.4-6.4V8.7C2.3,5.2,5.2,2.3,8.7,2.3z
		 M23.7,4.6c-1,0-1.7,0.8-1.7,1.7s0.8,1.7,1.7,1.7c1,0,1.7-0.8,1.7-1.7S24.6,4.6,23.7,4.6z M15,6.9c-4.4,0-8.1,3.6-8.1,8.1
		s3.6,8.1,8.1,8.1s8.1-3.6,8.1-8.1S19.4,6.9,15,6.9z M15,9.2c3.2,0,5.8,2.6,5.8,5.8s-2.6,5.8-5.8,5.8S9.2,18.2,9.2,15
		S11.8,9.2,15,9.2z"/>
</g>
</svg>
