<?xml version="1.0" encoding="utf-8"?>
<!-- Generator: Adobe Illustrator 24.3.0, SVG Export Plug-In . SVG Version: 6.00 Build 0)  -->
<svg version="1.1" id="i-cart" xmlns="http://www.w3.org/2000/svg" xmlns:xlink="http://www.w3.org/1999/xlink" x="0px" y="0px"
	 viewBox="0 0 32 32" style="enable-background:new 0 0 32 32;" xml:space="preserve">
<style type="text/css">
	.st0{fill:#20ACE7;}
</style>
<g>
	<path class="st0" d="M30.8,14.2l-0.7-9C30,3.4,28.6,2,26.8,1.9l-9-0.7c-1.1-0.1-2.1,0.3-2.8,1L2.2,15c-0.7,0.7-1,1.5-1,2.5
		c0,0.9,0.4,1.8,1,2.5l9.8,9.8c0.7,0.7,1.6,1,2.5,1c0.9,0,1.8-0.3,2.5-1L29.8,17C30.5,16.2,30.9,15.3,30.8,14.2L30.8,14.2z
		 M28.5,15.7L15.6,28.5c-0.6,0.6-1.7,0.6-2.3,0l-9.8-9.8C3.2,18.4,3,17.9,3,17.5c0-0.4,0.2-0.8,0.5-1.1L16.3,3.5
		C16.7,3.2,17.1,3,17.5,3c0.1,0,0.1,0,0.2,0l9,0.7c0.9,0.1,1.5,0.7,1.6,1.6l0.7,9C29,14.9,28.8,15.3,28.5,15.7z M22.9,5.6
		c-1.9,0-3.5,1.6-3.5,3.5s1.6,3.5,3.5,3.5c1.9,0,3.5-1.6,3.5-3.5S24.8,5.6,22.9,5.6z M22.9,10.8c-0.9,0-1.7-0.7-1.7-1.7
		s0.7-1.7,1.7-1.7s1.7,0.7,1.7,1.7S23.8,10.8,22.9,10.8z"/>
</g>
</svg>
