<?xml version="1.0" encoding="utf-8"?>
<!-- Generator: Adobe Illustrator 24.3.0, SVG Export Plug-In . SVG Version: 6.00 Build 0)  -->
<svg version="1.1" id="Capa_1" xmlns="http://www.w3.org/2000/svg" xmlns:xlink="http://www.w3.org/1999/xlink" x="0px" y="0px"
	 viewBox="0 0 512 512" style="enable-background:new 0 0 512 512;" xml:space="preserve">
<style type="text/css">
	.st0{fill:#FFFFFF;}
</style>
<g>
	<g>
		<g>
			<path class="st0" d="M450.6,122H63.1c-22.8,0-41.3,15-41.3,33.4v222.5c0,18.3,18.5,33.4,41.3,33.4h387.5
				c22.7,0,41.3-14.9,41.3-33.4V155.4C492,137,473.5,122,450.6,122z M444.9,144.3L257.8,295.4L69,144.3H444.9z M49.3,373.3V159.9
				L182,266.1L49.3,373.3z M68.8,389l132.8-107.2l46.5,37.3c5.4,4.3,14.1,4.3,19.4,0l45.4-36.6l132,106.7H68.8z M464.4,373.3
				l-132-106.7l132-106.7V373.3z"/>
		</g>
	</g>
	<g>
	</g>
	<g>
	</g>
	<g>
	</g>
	<g>
	</g>
	<g>
	</g>
	<g>
	</g>
	<g>
	</g>
	<g>
	</g>
	<g>
	</g>
	<g>
	</g>
	<g>
	</g>
	<g>
	</g>
	<g>
	</g>
	<g>
	</g>
	<g>
	</g>
</g>
</svg>
