<?xml version="1.0" encoding="utf-8"?>
<!-- Generator: Adobe Illustrator 24.3.0, SVG Export Plug-In . SVG Version: 6.00 Build 0)  -->
<svg version="1.1" xmlns="http://www.w3.org/2000/svg" xmlns:xlink="http://www.w3.org/1999/xlink" x="0px" y="0px"
	 viewBox="0 0 31.3 18.9" style="enable-background:new 0 0 31.3 18.9;" xml:space="preserve">
<style type="text/css">
	.st0{clip-path:url(#SVGID_2_);fill:#FFFFFF;}
	.st1{clip-path:url(#SVGID_2_);fill:#FF0000;}
	.st2{clip-path:url(#SVGID_2_);fill:#040472;}
	.st3{clip-path:url(#SVGID_2_);}
	.st4{fill:#040472;}
	.st5{fill:#FF0000;}
</style>
<g id="Capa_1">
</g>
<g id="Capa_2">
	<g>
		<defs>
			<circle id="SVGID_1_" cx="9.9" cy="9.5" r="9.4"/>
		</defs>
		<clipPath id="SVGID_2_">
			<use xlink:href="#SVGID_1_"  style="overflow:visible;"/>
		</clipPath>
		<rect class="st0" width="9.9" height="9.5"/>
		<rect x="9.9" class="st1" width="9.9" height="9.5"/>
		<rect x="9.9" y="9.5" class="st0" width="9.9" height="9.5"/>
		<rect x="0" y="9.5" class="st2" width="9.9" height="9.5"/>
		<g class="st3">
			<g id="Capa_2_2_">
				<path class="st4" d="M4.3,4.1L4.8,3c0,0,0.1-0.4,0.3,0c0,0,0.5,1.1,0.5,1.1l1.3,0.1c0,0,0.2,0,0.1,0.2c0,0-1,0.9-1,0.9l0.3,1.2
					c0,0,0.1,0.3-0.2,0.2c0,0-1.1-0.7-1.1-0.7L3.9,6.6c0,0-0.2,0.2-0.2-0.1c0,0,0.3-1.2,0.3-1.2L3,4.4c0,0-0.1-0.1,0-0.2
					C3,4.2,4.3,4.1,4.3,4.1z"/>
			</g>
		</g>
		<g class="st3">
			<g id="Capa_2_1_">
				<path class="st5" d="M14.2,13.5l0.5-1.1c0,0,0.1-0.4,0.3,0c0,0,0.5,1.1,0.5,1.1l1.3,0.1c0,0,0.2,0,0.1,0.2c0,0-1,0.9-1,0.9
					l0.3,1.2c0,0,0.1,0.3-0.2,0.2c0,0-1.1-0.7-1.1-0.7L13.7,16c0,0-0.2,0.2-0.2-0.1c0,0,0.3-1.2,0.3-1.2l-1-0.9c0,0-0.1-0.1,0-0.2
					C12.9,13.7,14.2,13.5,14.2,13.5z"/>
			</g>
		</g>
	</g>
	<polygon points="25.5,8.1 31.3,8.1 28.4,11.9 	"/>
</g>
</svg>
