<?xml version="1.0" encoding="utf-8"?>
<!-- Generator: Adobe Illustrator 24.3.0, SVG Export Plug-In . SVG Version: 6.00 Build 0)  -->
<svg version="1.1" xmlns="http://www.w3.org/2000/svg" xmlns:xlink="http://www.w3.org/1999/xlink" x="0px" y="0px"
	 viewBox="0 0 40.5 27" style="enable-background:new 0 0 40.5 27;" xml:space="preserve">
<style type="text/css">
	.st0{fill:#FFFFFF;}
	.st1{fill:#DA121A;}
	.st2{fill:#072357;}
</style>
<g id="Capa_2">
	<rect x="0" class="st0" width="40.5" height="27"/>
</g>
<g id="Capa_1">
	<rect x="20.2" class="st1" width="20.2" height="13.5"/>
	<rect x="0" y="13.5" class="st2" width="20.2" height="13.5"/>
	<g>
		<g id="Capa_2_2_">
			<path class="st2" d="M8.1,5.1l0.7-1.6c0,0,0.1-0.6,0.4,0L10,5.1l1.9,0.1c0,0,0.3,0,0.1,0.3l-1.5,1.3L11,8.6c0,0,0.1,0.4-0.3,0.3
				l-1.6-1L7.5,8.7c0,0-0.3,0.3-0.3-0.1l0.4-1.8L6.1,5.5c0,0-0.1-0.1,0-0.3C6.1,5.2,8.1,5.1,8.1,5.1z"/>
		</g>
	</g>
	<g>
		<g id="Capa_2_1_">
			<path class="st1" d="M30.4,19.9l0.7-1.6c0,0,0.1-0.6,0.4,0l0.7,1.6l1.9,0.1c0,0,0.3,0,0.1,0.3l-1.5,1.3l0.4,1.8
				c0,0,0.1,0.4-0.3,0.3l-1.6-1l-1.6,0.9c0,0-0.3,0.3-0.3-0.1l0.4-1.8l-1.5-1.3c0,0-0.1-0.1,0-0.3C28.5,20.1,30.4,19.9,30.4,19.9z"
				/>
		</g>
	</g>
</g>
</svg>
