<?xml version="1.0" encoding="utf-8"?>
<!-- Generator: Adobe Illustrator 24.3.0, SVG Export Plug-In . SVG Version: 6.00 Build 0)  -->
<svg version="1.1" id="Capa_1" xmlns="http://www.w3.org/2000/svg" xmlns:xlink="http://www.w3.org/1999/xlink" x="0px" y="0px"
	 viewBox="0 0 30 30" style="enable-background:new 0 0 30 30;" xml:space="preserve">
<style type="text/css">
	.st0{fill:#FFFFFF;}
	.st1{fill:#E60023;}
</style>
<g>
	<circle class="st0" cx="15" cy="15" r="15"/>
	<path class="st1" d="M15.3,5.6c-6.5,0-9.9,4.3-9.9,9.1c0,2.2,1.2,4.9,3,5.8c0.3,0.1,0.4,0.1,0.5-0.2C9,20,9.3,19,9.4,18.5
		c0-0.2,0-0.3-0.1-0.4c-0.6-0.8-1.1-2.1-1.1-3.4c0-3.3,2.5-6.5,6.8-6.5c3.7,0,6.3,2.5,6.3,6.1c0,4.1-2,6.9-4.7,6.9
		c-1.5,0-2.6-1.2-2.2-2.7c0.4-1.8,1.2-3.7,1.2-5c0-1.2-0.6-2.1-1.9-2.1c-1.5,0-2.7,1.6-2.7,3.6c0,1.3,0.4,2.2,0.4,2.2
		s-1.5,6.3-1.8,7.5C9.3,26,9.4,27.8,9.5,29l0,0c0.3,0.1,0.7,0.3,1,0.4l0,0c0.6-1,1.5-2.6,1.9-3.9c0.2-0.7,0.9-3.6,0.9-3.6
		c0.5,0.9,1.9,1.7,3.4,1.7c4.5,0,7.8-4.2,7.8-9.3C24.6,9.3,20.5,5.6,15.3,5.6z"/>
</g>
</svg>
