<?xml version="1.0" encoding="utf-8"?>
<!-- Generator: Adobe Illustrator 24.3.0, SVG Export Plug-In . SVG Version: 6.00 Build 0)  -->
<svg version="1.1" id="Capa_1" xmlns="http://www.w3.org/2000/svg" xmlns:xlink="http://www.w3.org/1999/xlink" x="0px" y="0px"
	 viewBox="0 0 407.57 461.91" style="enable-background:new 0 0 407.57 461.91;" xml:space="preserve">
<circle cx="19.74" cy="27.4" r="11.81"/>
<circle cx="65.29" cy="27.4" r="11.81"/>
<circle cx="19.74" cy="27.4" r="11.81"/>
<circle cx="19.74" cy="72.95" r="11.81"/>
<circle cx="65.29" cy="72.95" r="11.81"/>
<circle cx="110.85" cy="72.95" r="11.81"/>
<circle cx="65.29" cy="72.95" r="11.81"/>
<circle cx="65.29" cy="118.51" r="11.81"/>
<circle cx="110.85" cy="72.95" r="11.81"/>
<circle cx="156.4" cy="72.95" r="11.81"/>
<circle cx="201.96" cy="72.95" r="11.81"/>
<circle cx="156.4" cy="72.95" r="11.81"/>
<circle cx="201.96" cy="72.95" r="11.81"/>
<circle cx="247.51" cy="72.95" r="11.81"/>
<circle cx="293.07" cy="72.95" r="11.81"/>
<circle cx="247.51" cy="72.95" r="11.81"/>
<circle cx="293.07" cy="72.95" r="11.81"/>
<circle cx="338.62" cy="72.95" r="11.81"/>
<circle cx="384.17" cy="72.95" r="11.81"/>
<circle cx="338.62" cy="72.95" r="11.81"/>
<circle cx="110.85" cy="27.4" r="11.81"/>
<circle cx="110.85" cy="27.4" r="11.81"/>
<circle cx="156.4" cy="27.4" r="11.81"/>
<circle cx="201.96" cy="27.4" r="11.81"/>
<circle cx="156.4" cy="27.4" r="11.81"/>
<circle cx="201.96" cy="27.4" r="11.81"/>
<circle cx="247.51" cy="27.4" r="11.81"/>
<circle cx="293.07" cy="27.4" r="11.81"/>
<circle cx="247.51" cy="27.4" r="11.81"/>
<circle cx="293.07" cy="27.4" r="11.81"/>
<circle cx="338.62" cy="27.4" r="11.81"/>
<circle cx="384.17" cy="27.4" r="11.81"/>
<circle cx="338.62" cy="27.4" r="11.81"/>
<circle cx="65.29" cy="118.51" r="11.81"/>
<circle cx="110.85" cy="118.51" r="11.81"/>
<circle cx="65.29" cy="118.51" r="11.81"/>
<circle cx="110.85" cy="118.51" r="11.81"/>
<circle cx="156.4" cy="118.51" r="11.81"/>
<circle cx="201.96" cy="118.51" r="11.81"/>
<circle cx="156.4" cy="118.51" r="11.81"/>
<circle cx="201.96" cy="118.51" r="11.81"/>
<circle cx="247.51" cy="118.51" r="11.81"/>
<circle cx="293.07" cy="118.51" r="11.81"/>
<circle cx="247.51" cy="118.51" r="11.81"/>
<circle cx="293.07" cy="118.51" r="11.81"/>
<circle cx="338.62" cy="118.51" r="11.81"/>
<circle cx="384.17" cy="118.51" r="11.81"/>
<circle cx="338.62" cy="118.51" r="11.81"/>
<circle cx="65.29" cy="164.06" r="11.81"/>
<circle cx="110.85" cy="164.06" r="11.81"/>
<circle cx="65.29" cy="164.06" r="11.81"/>
<circle cx="110.85" cy="164.06" r="11.81"/>
<circle cx="156.4" cy="164.06" r="11.81"/>
<circle cx="201.96" cy="164.06" r="11.81"/>
<circle cx="156.4" cy="164.06" r="11.81"/>
<circle cx="201.96" cy="164.06" r="11.81"/>
<circle cx="247.51" cy="164.06" r="11.81"/>
<circle cx="293.07" cy="164.06" r="11.81"/>
<circle cx="247.51" cy="164.06" r="11.81"/>
<circle cx="293.07" cy="164.06" r="11.81"/>
<circle cx="338.62" cy="164.06" r="11.81"/>
<circle cx="384.17" cy="164.06" r="11.81"/>
<circle cx="338.62" cy="164.06" r="11.81"/>
<circle cx="65.29" cy="209.62" r="11.81"/>
<circle cx="65.29" cy="255.17" r="11.81"/>
<circle cx="110.85" cy="255.17" r="11.81"/>
<circle cx="65.29" cy="255.17" r="11.81"/>
<circle cx="65.29" cy="300.73" r="11.81"/>
<circle cx="110.85" cy="255.17" r="11.81"/>
<circle cx="156.4" cy="255.17" r="11.81"/>
<circle cx="201.96" cy="255.17" r="11.81"/>
<circle cx="156.4" cy="255.17" r="11.81"/>
<circle cx="201.96" cy="255.17" r="11.81"/>
<circle cx="247.51" cy="255.17" r="11.81"/>
<circle cx="293.07" cy="255.17" r="11.81"/>
<circle cx="247.51" cy="255.17" r="11.81"/>
<circle cx="293.07" cy="255.17" r="11.81"/>
<circle cx="338.62" cy="255.17" r="11.81"/>
<circle cx="384.17" cy="255.17" r="11.81"/>
<circle cx="338.62" cy="255.17" r="11.81"/>
<circle cx="110.85" cy="209.62" r="11.81"/>
<circle cx="110.85" cy="209.62" r="11.81"/>
<circle cx="156.4" cy="209.62" r="11.81"/>
<circle cx="201.96" cy="209.62" r="11.81"/>
<circle cx="156.4" cy="209.62" r="11.81"/>
<circle cx="201.96" cy="209.62" r="11.81"/>
<circle cx="247.51" cy="209.62" r="11.81"/>
<circle cx="293.07" cy="209.62" r="11.81"/>
<circle cx="247.51" cy="209.62" r="11.81"/>
<circle cx="293.07" cy="209.62" r="11.81"/>
<circle cx="338.62" cy="209.62" r="11.81"/>
<circle cx="384.17" cy="209.62" r="11.81"/>
<circle cx="338.62" cy="209.62" r="11.81"/>
<circle cx="65.29" cy="300.73" r="11.81"/>
<circle cx="110.85" cy="300.73" r="11.81"/>
<circle cx="65.29" cy="300.73" r="11.81"/>
<circle cx="110.85" cy="300.73" r="11.81"/>
<circle cx="156.4" cy="300.73" r="11.81"/>
<circle cx="201.96" cy="300.73" r="11.81"/>
<circle cx="156.4" cy="300.73" r="11.81"/>
<circle cx="201.96" cy="300.73" r="11.81"/>
<circle cx="247.51" cy="300.73" r="11.81"/>
<circle cx="293.07" cy="300.73" r="11.81"/>
<circle cx="247.51" cy="300.73" r="11.81"/>
<circle cx="293.07" cy="300.73" r="11.81"/>
<circle cx="338.62" cy="300.73" r="11.81"/>
<circle cx="384.17" cy="300.73" r="11.81"/>
<circle cx="338.62" cy="300.73" r="11.81"/>
<circle cx="65.29" cy="346.28" r="11.81"/>
<circle cx="110.85" cy="346.28" r="11.81"/>
<circle cx="65.29" cy="346.28" r="11.81"/>
<circle cx="110.85" cy="346.28" r="11.81"/>
<circle cx="156.4" cy="346.28" r="11.81"/>
<circle cx="201.96" cy="346.28" r="11.81"/>
<circle cx="156.4" cy="346.28" r="11.81"/>
<circle cx="201.96" cy="346.28" r="11.81"/>
<circle cx="247.51" cy="346.28" r="11.81"/>
<circle cx="293.07" cy="346.28" r="11.81"/>
<circle cx="247.51" cy="346.28" r="11.81"/>
<circle cx="293.07" cy="346.28" r="11.81"/>
<circle cx="338.62" cy="346.28" r="11.81"/>
<circle cx="384.17" cy="346.28" r="11.81"/>
<circle cx="338.62" cy="346.28" r="11.81"/>
<circle cx="65.29" cy="391.84" r="11.81"/>
<circle cx="65.29" cy="391.84" r="11.81"/>
<circle cx="110.85" cy="391.84" r="11.81"/>
<circle cx="65.29" cy="391.84" r="11.81"/>
<circle cx="110.85" cy="391.84" r="11.81"/>
<circle cx="156.4" cy="391.84" r="11.81"/>
<circle cx="201.96" cy="391.84" r="11.81"/>
<circle cx="156.4" cy="391.84" r="11.81"/>
<circle cx="201.96" cy="391.84" r="11.81"/>
<circle cx="247.51" cy="391.84" r="11.81"/>
<circle cx="293.07" cy="391.84" r="11.81"/>
<circle cx="247.51" cy="391.84" r="11.81"/>
<circle cx="293.07" cy="391.84" r="11.81"/>
<circle cx="338.62" cy="391.84" r="11.81"/>
<circle cx="384.17" cy="391.84" r="11.81"/>
<circle cx="338.62" cy="391.84" r="11.81"/>
<circle cx="65.29" cy="437.39" r="11.81"/>
<circle cx="110.85" cy="437.39" r="11.81"/>
<circle cx="65.29" cy="437.39" r="11.81"/>
<circle cx="110.85" cy="437.39" r="11.81"/>
<circle cx="156.4" cy="437.39" r="11.81"/>
<circle cx="201.96" cy="437.39" r="11.81"/>
<circle cx="156.4" cy="437.39" r="11.81"/>
<circle cx="201.96" cy="437.39" r="11.81"/>
<circle cx="247.51" cy="437.39" r="11.81"/>
<circle cx="293.07" cy="437.39" r="11.81"/>
<circle cx="247.51" cy="437.39" r="11.81"/>
<circle cx="293.07" cy="437.39" r="11.81"/>
<circle cx="338.62" cy="437.39" r="11.81"/>
<circle cx="384.17" cy="437.39" r="11.81"/>
<circle cx="338.62" cy="437.39" r="11.81"/>
<circle cx="19.74" cy="72.95" r="11.81"/>
<circle cx="19.74" cy="118.51" r="11.81"/>
<circle cx="19.74" cy="164.06" r="11.81"/>
<circle cx="19.74" cy="118.51" r="11.81"/>
<circle cx="19.74" cy="164.06" r="11.81"/>
<circle cx="19.74" cy="209.62" r="11.81"/>
<circle cx="19.74" cy="255.17" r="11.81"/>
<circle cx="19.74" cy="209.62" r="11.81"/>
<circle cx="19.74" cy="255.17" r="11.81"/>
<circle cx="19.74" cy="300.73" r="11.81"/>
<circle cx="19.74" cy="346.28" r="11.81"/>
<circle cx="19.74" cy="300.73" r="11.81"/>
<circle cx="19.74" cy="346.28" r="11.81"/>
<circle cx="19.74" cy="391.84" r="11.81"/>
<circle cx="19.74" cy="437.39" r="11.81"/>
<circle cx="19.74" cy="391.84" r="11.81"/>
</svg>
