<?xml version="1.0" encoding="utf-8"?>
<!-- Generator: Adobe Illustrator 24.3.0, SVG Export Plug-In . SVG Version: 6.00 Build 0)  -->
<svg version="1.1" id="Capa_1" xmlns="http://www.w3.org/2000/svg" xmlns:xlink="http://www.w3.org/1999/xlink" x="0px" y="0px"
	 viewBox="0 0 20 20" style="enable-background:new 0 0 20 20;" xml:space="preserve">
<style type="text/css">
	.st0{stroke:#000000;stroke-width:0.25;stroke-miterlimit:10;}
</style>
<g>
	<g>
		<path class="st0" d="M13.8,7.5h-1.1C12.9,7.3,13,7,13,6.7c0-0.7-0.6-1.4-1.4-1.4c-0.5,0-0.8,0.2-1,0.5S10.2,6.5,10,7
			C9.8,6.6,9.6,6.2,9.4,5.9c-0.3-0.3-0.6-0.5-1-0.5C7.6,5.4,7,6,7,6.7C7,7,7.1,7.3,7.3,7.5H6.2c-0.4,0-0.8,0.4-0.8,0.8v0.5
			c0,0.4,0.2,0.7,0.5,0.8v4.1c0,0.4,0.4,0.8,0.8,0.8h6.5c0.4,0,0.8-0.4,0.8-0.8v-4c0.3-0.1,0.5-0.4,0.5-0.8V8.4
			C14.6,7.9,14.3,7.5,13.8,7.5z M10.5,7.3c0.4-1.1,0.6-1.4,1.1-1.4c0.4,0,0.8,0.4,0.8,0.8S12,7.5,11.6,7.5h-1.2
			C10.4,7.5,10.5,7.4,10.5,7.3z M8.4,5.9c0.6,0,0.7,0.3,1.1,1.4c0,0.1,0.1,0.2,0.1,0.2H8.4C8,7.5,7.6,7.1,7.6,6.7S7.9,5.9,8.4,5.9z
			 M8.9,14.1H6.7c-0.1,0-0.3-0.1-0.3-0.3V9.7h2.5V14.1z M8.9,9.2H6.2C6,9.2,5.9,9,5.9,8.9V8.4c0-0.1,0.1-0.3,0.3-0.3h2.7
			C8.9,8.1,8.9,9.2,8.9,9.2z M10.5,14.1h-1v-6c0.1,0,0.8,0,1.1,0v6H10.5z M13.5,13.8c0,0.1-0.1,0.3-0.3,0.3H11V9.7h2.5V13.8z
			 M14.1,8.9c0,0.1-0.1,0.3-0.3,0.3h-2.7V8.1h2.7c0.1,0,0.3,0.1,0.3,0.3V8.9z"/>
	</g>
</g>
</svg>
