<?xml version="1.0" encoding="utf-8"?>
<!-- Generator: Adobe Illustrator 24.3.0, SVG Export Plug-In . SVG Version: 6.00 Build 0)  -->
<svg version="1.1" id="Capa_1" xmlns="http://www.w3.org/2000/svg" xmlns:xlink="http://www.w3.org/1999/xlink" x="0px" y="0px"
	 viewBox="0 0 198 209" style="enable-background:new 0 0 198 209;" xml:space="preserve">
<style type="text/css">
	.st0{fill:#FFFFFF;stroke:#FFFFFF;stroke-width:8;stroke-linecap:round;stroke-linejoin:round;stroke-miterlimit:10;}
</style>
<line class="st0" x1="-2.93" y1="36.75" x2="37.6" y2="4.57"/>
<line class="st0" x1="160.47" y1="36.75" x2="201" y2="4.57"/>
<line class="st0" x1="37.97" y1="4.57" x2="78.5" y2="36.75"/>
<line class="st0" x1="78.87" y1="36.69" x2="119.4" y2="4.51"/>
<line class="st0" x1="119.77" y1="4.51" x2="160.3" y2="36.69"/>
<line class="st0" x1="-2.83" y1="90.79" x2="37.7" y2="58.61"/>
<line class="st0" x1="160.58" y1="90.79" x2="201.1" y2="58.61"/>
<line class="st0" x1="38.07" y1="58.61" x2="78.6" y2="90.79"/>
<line class="st0" x1="78.97" y1="90.73" x2="119.5" y2="58.55"/>
<line class="st0" x1="119.88" y1="58.55" x2="160.4" y2="90.73"/>
<line class="st0" x1="-2.56" y1="150.57" x2="37.97" y2="118.38"/>
<line class="st0" x1="160.84" y1="150.57" x2="201.37" y2="118.38"/>
<line class="st0" x1="38.34" y1="118.38" x2="78.87" y2="150.57"/>
<line class="st0" x1="79.24" y1="150.5" x2="119.77" y2="118.32"/>
<line class="st0" x1="120.14" y1="118.32" x2="160.67" y2="150.5"/>
<line class="st0" x1="-2.96" y1="204.42" x2="37.56" y2="172.24"/>
<line class="st0" x1="160.44" y1="204.42" x2="200.96" y2="172.24"/>
<line class="st0" x1="37.94" y1="172.24" x2="78.46" y2="204.42"/>
<line class="st0" x1="78.84" y1="204.36" x2="119.36" y2="172.18"/>
<line class="st0" x1="119.74" y1="172.18" x2="160.26" y2="204.36"/>
</svg>
