<?xml version="1.0" encoding="utf-8"?>
<!-- Generator: Adobe Illustrator 24.3.0, SVG Export Plug-In . SVG Version: 6.00 Build 0)  -->
<svg version="1.1" id="Capa_1" xmlns="http://www.w3.org/2000/svg" xmlns:xlink="http://www.w3.org/1999/xlink" x="0px" y="0px"
	 viewBox="0 0 129 147" style="enable-background:new 0 0 129 147;" xml:space="preserve">
<style type="text/css">
	.st0{fill:none;stroke:#FFFFFF;stroke-width:4;stroke-linecap:round;stroke-miterlimit:10;}
</style>
<line class="st0" x1="11.8" y1="16.54" x2="21.74" y2="6.6"/>
<line class="st0" x1="11.8" y1="6.6" x2="21.74" y2="16.54"/>
<line class="st0" x1="44.5" y1="16.54" x2="54.44" y2="6.6"/>
<line class="st0" x1="44.5" y1="6.6" x2="54.44" y2="16.54"/>
<line class="st0" x1="79.43" y1="16.54" x2="89.37" y2="6.6"/>
<line class="st0" x1="79.43" y1="6.6" x2="89.37" y2="16.54"/>
<line class="st0" x1="111.38" y1="15.84" x2="121.31" y2="5.91"/>
<line class="st0" x1="111.38" y1="5.91" x2="121.31" y2="15.84"/>
<line class="st0" x1="11.17" y1="46.98" x2="21.1" y2="37.05"/>
<line class="st0" x1="11.17" y1="37.05" x2="21.1" y2="46.98"/>
<line class="st0" x1="43.87" y1="46.98" x2="53.8" y2="37.05"/>
<line class="st0" x1="43.87" y1="37.05" x2="53.8" y2="46.98"/>
<line class="st0" x1="78.8" y1="46.98" x2="88.74" y2="37.05"/>
<line class="st0" x1="78.8" y1="37.05" x2="88.74" y2="46.98"/>
<line class="st0" x1="110.74" y1="46.28" x2="120.68" y2="36.35"/>
<line class="st0" x1="110.74" y1="36.35" x2="120.68" y2="46.28"/>
<line class="st0" x1="11.67" y1="78.82" x2="21.6" y2="68.88"/>
<line class="st0" x1="11.67" y1="68.88" x2="21.6" y2="78.82"/>
<line class="st0" x1="44.37" y1="78.82" x2="54.3" y2="68.88"/>
<line class="st0" x1="44.37" y1="68.88" x2="54.3" y2="78.82"/>
<line class="st0" x1="79.3" y1="78.82" x2="89.24" y2="68.88"/>
<line class="st0" x1="79.3" y1="68.88" x2="89.24" y2="78.82"/>
<line class="st0" x1="111.25" y1="78.12" x2="121.18" y2="68.18"/>
<line class="st0" x1="111.25" y1="68.18" x2="121.18" y2="78.12"/>
<line class="st0" x1="11.73" y1="114.97" x2="21.67" y2="105.04"/>
<line class="st0" x1="11.73" y1="105.04" x2="21.67" y2="114.97"/>
<line class="st0" x1="44.44" y1="114.97" x2="54.37" y2="105.04"/>
<line class="st0" x1="44.44" y1="105.04" x2="54.37" y2="114.97"/>
<line class="st0" x1="79.37" y1="114.97" x2="89.3" y2="105.04"/>
<line class="st0" x1="79.37" y1="105.04" x2="89.3" y2="114.97"/>
<line class="st0" x1="111.31" y1="114.27" x2="121.25" y2="104.34"/>
<line class="st0" x1="111.31" y1="104.34" x2="121.25" y2="114.27"/>
<line class="st0" x1="12.84" y1="144.48" x2="22.77" y2="134.54"/>
<line class="st0" x1="12.84" y1="134.54" x2="22.77" y2="144.48"/>
<line class="st0" x1="45.54" y1="144.48" x2="55.47" y2="134.54"/>
<line class="st0" x1="45.54" y1="134.54" x2="55.47" y2="144.48"/>
<line class="st0" x1="80.47" y1="144.48" x2="90.41" y2="134.54"/>
<line class="st0" x1="80.47" y1="134.54" x2="90.41" y2="144.48"/>
<line class="st0" x1="112.42" y1="143.78" x2="122.35" y2="133.85"/>
<line class="st0" x1="112.42" y1="133.85" x2="122.35" y2="143.78"/>
</svg>
