<?xml version="1.0" encoding="utf-8"?>
<!-- Generator: Adobe Illustrator 24.3.0, SVG Export Plug-In . SVG Version: 6.00 Build 0)  -->
<svg version="1.1" xmlns="http://www.w3.org/2000/svg" xmlns:xlink="http://www.w3.org/1999/xlink" x="0px" y="0px"
	 viewBox="0 0 36 34" style="enable-background:new 0 0 36 34;" xml:space="preserve">
<style type="text/css">
	.st0{display:none;}
	.st1{fill:#FFFB00;}
</style>
<g id="Capa_1" class="st0">
	
		<image style="display:inline;overflow:visible;" width="512" height="512" xlink:href="estrella.png"  transform="matrix(6.881278e-02 0 0 6.881278e-02 0.3839 -0.6161)">
	</image>
</g>
<g id="Capa_2">
	<path class="st1" d="M12.7,11.4l4.1-9.7c0,0,1.1-3.2,2.3,0c0.1,0.3,4.1,9.7,4.1,9.7l11.1,1c0,0,1.9,0.1,0.9,1.5
		c-0.1,0.2-8.7,7.6-8.7,7.6L29,31.8c0,0,1,2.8-1.6,1.5c-0.1-0.1-9.4-5.7-9.4-5.7l-9.4,5.6c0,0-2,1.4-1.7-1.1C7,32,9.5,21.5,9.5,21.5
		L0.9,14c0,0-0.9-0.7,0-1.5C1,12.5,12.7,11.4,12.7,11.4z"/>
</g>
</svg>
