<?xml version="1.0" encoding="utf-8"?>
<!-- Generator: Adobe Illustrator 24.3.0, SVG Export Plug-In . SVG Version: 6.00 Build 0)  -->
<svg version="1.1" id="Layer_1" xmlns="http://www.w3.org/2000/svg" xmlns:xlink="http://www.w3.org/1999/xlink" x="0px" y="0px"
	 viewBox="0 0 512 512" style="enable-background:new 0 0 512 512;" xml:space="preserve">
<style type="text/css">
	.st0{fill:#20ACE7;}
</style>
<g>
	<path class="st0" d="M453.9,118.2l-38.3-38.3V22.8c0-12.5-10.2-22.8-22.8-22.8H78.4C66,0,55.9,10.1,55.9,22.5v377
		c0,12.4,10.1,22.5,22.5,22.5h12.7v12.5c0,12.4,10.1,22.5,22.5,22.5h48.8c4.1,0,7.5-3.4,7.5-7.5s-3.4-7.5-7.5-7.5h-48.8
		c-4.1,0-7.5-3.4-7.5-7.5V133c0-4.1-3.4-7.5-7.5-7.5s-7.5,3.4-7.5,7.5v274H78.4c-4.1,0-7.5-3.4-7.5-7.5v-377c0-4.1,3.4-7.5,7.5-7.5
		h314.5c4.3,0,7.8,3.5,7.8,7.8v42.1l-27.7-27.7c-1.4-1.4-3.3-2.2-5.3-2.2h-254c-12.4,0-22.5,10.1-22.5,22.5V98
		c0,4.1,3.4,7.5,7.5,7.5s7.5-3.4,7.5-7.5V57.5c0-4.1,3.4-7.5,7.5-7.5h246.5v73.5c0,4.1,3.4,7.5,7.5,7.5l73.5,0v303.5
		c0,4.1-3.4,7.5-7.5,7.5h-48.2c-4.1,0-7.5,3.4-7.5,7.5s3.4,7.5,7.5,7.5h48.2c12.4,0,22.5-10.1,22.5-22.5v-311
		C456.1,121.5,455.3,119.6,453.9,118.2L453.9,118.2z M375.1,116V60.6l55.4,55.4L375.1,116z"/>
	<path class="st0" d="M363.5,175.5H184.1c-4.1,0-7.5,3.4-7.5,7.5s3.4,7.5,7.5,7.5h179.4c4.1,0,7.5-3.4,7.5-7.5
		S367.6,175.5,363.5,175.5z"/>
	<path class="st0" d="M363.5,219.7H184.1c-4.1,0-7.5,3.4-7.5,7.5s3.4,7.5,7.5,7.5h179.4c4.1,0,7.5-3.4,7.5-7.5
		S367.6,219.7,363.5,219.7z"/>
	<path class="st0" d="M363.5,264.8H328c-4.1,0-7.5,3.4-7.5,7.5s3.4,7.5,7.5,7.5h35.4c4.1,0,7.5-3.4,7.5-7.5S367.6,264.8,363.5,264.8
		z"/>
	<path class="st0" d="M292.7,279.8c4.1,0,7.5-3.4,7.5-7.5s-3.4-7.5-7.5-7.5H184.1c-4.1,0-7.5,3.4-7.5,7.5s3.4,7.5,7.5,7.5H292.7z"/>
	<path class="st0" d="M301.3,410.6l-20-20v72.5c0,4.1-3.4,7.5-7.5,7.5s-7.5-3.4-7.5-7.5v-72.5l-20,20c-2.9,2.9-7.7,2.9-10.6,0
		c-2.9-2.9-2.9-7.7,0-10.6l32.8-32.8c1.5-1.5,3.4-2.2,5.3-2.2s3.8,0.7,5.3,2.2l32.8,32.8c2.9,2.9,2.9,7.7,0,10.6
		C309,413.5,304.2,413.5,301.3,410.6L301.3,410.6z"/>
	<path class="st0" d="M273.8,323.6c-51.9,0-94.2,42.3-94.2,94.2c0,51.9,42.3,94.2,94.2,94.2s94.2-42.3,94.2-94.2
		C368,365.9,325.7,323.6,273.8,323.6z M273.8,497c-43.7,0-79.2-35.5-79.2-79.2s35.5-79.2,79.2-79.2s79.2,35.5,79.2,79.2
		S317.4,497,273.8,497z"/>
</g>
</svg>
