<?xml version="1.0" encoding="utf-8"?>
<!-- Generator: Adobe Illustrator 24.3.0, SVG Export Plug-In . SVG Version: 6.00 Build 0)  -->
<svg version="1.1" id="Capa_1" xmlns="http://www.w3.org/2000/svg" xmlns:xlink="http://www.w3.org/1999/xlink" x="0px" y="0px"
	 viewBox="0 0 17.5 19" style="enable-background:new 0 0 17.5 19;" xml:space="preserve">
<g>
	<g>
		<g>
			<path d="M8.7,0.3c-2.9,0-5.2,2.2-5.2,4.9s2.3,4.9,5.2,4.9S14,8,14,5.3S11.6,0.3,8.7,0.3z M8.7,9.1c-2.2,0-4.1-1.7-4.1-3.8
				s1.8-3.8,4.1-3.8s4.1,1.7,4.1,3.8S11,9.1,8.7,9.1z"/>
		</g>
	</g>
	<g>
		<g>
			<path d="M15.2,13.4c-1.4-1.4-3.3-2.1-5.4-2.1H7.6c-2,0-3.9,0.8-5.4,2.1C0.8,14.8,0,16.6,0,18.5C0,18.8,0.3,19,0.6,19h16.3
				c0.3,0,0.6-0.2,0.6-0.5C17.5,16.6,16.7,14.8,15.2,13.4z M1.2,17.9c0.3-3.1,3-5.6,6.4-5.6h2.3c3.3,0,6.1,2.4,6.4,5.6H1.2z"/>
		</g>
	</g>
	<g>
	</g>
	<g>
	</g>
	<g>
	</g>
	<g>
	</g>
	<g>
	</g>
	<g>
	</g>
	<g>
	</g>
	<g>
	</g>
	<g>
	</g>
	<g>
	</g>
	<g>
	</g>
	<g>
	</g>
	<g>
	</g>
	<g>
	</g>
	<g>
	</g>
</g>
</svg>
