<?xml version="1.0" encoding="utf-8"?>
<!-- Generator: Adobe Illustrator 24.3.0, SVG Export Plug-In . SVG Version: 6.00 Build 0)  -->
<svg version="1.1" id="Capa_1" xmlns="http://www.w3.org/2000/svg" xmlns:xlink="http://www.w3.org/1999/xlink" x="0px" y="0px"
	 viewBox="0 0 750 136.89" style="enable-background:new 0 0 750 136.89;" xml:space="preserve">
<style type="text/css">
	.st0{fill:none;stroke:#000000;stroke-width:4;stroke-linecap:round;stroke-linejoin:round;stroke-miterlimit:10;}
</style>
<g>
	<g>
		<path class="st0" d="M131.5,68.21c-1.33-9.73-2.85-19.39-7.49-28.25C113.59,20.04,96.86,8.36,74.97,5.72
			C53.43,3.13,34.55,10.5,20.09,27.04C11.32,37.07,6.3,48.87,4.83,62.45c-1.67,15.44,2.11,29.42,10.35,41.9
			c8.48,12.84,20.78,21.33,35.81,25.65c24.7,7.12,51.3-2.95,66.01-21.53c8.47-10.7,12.85-22.98,14.02-36.5
			c0.1-1.18,0.48-2.34,0.73-3.5"/>
		<path class="st0" d="M620.5,69.46c1.06,10.5,2.94,20.7,8.45,30.03c10.8,18.3,26.23,29.29,47.55,32.01
			c32.69,4.17,58.38-15.69,67.15-41.17c9.82-28.49,1.48-57.28-26.72-75.77c-11.8-7.73-25.46-10.83-39.4-8.94
			c-22.07,2.99-39.13,13.99-49.56,34.31c-4.21,8.21-6.74,16.78-7.01,26.02c-0.03,1.01-0.63,2-0.96,3"/>
		<path class="st0" d="M337,68.96c-1.89-3.27-1.22-7.04-1.84-10.53c-3.39-19.16-13.34-33.74-29.7-43.92
			c-11.89-7.4-25.11-10.49-38.96-8.93c-17.06,1.92-31.54,9.46-42.47,22.91c-8.35,10.29-13.09,21.97-14.17,35.45
			c-2.39,29.95,16.82,57.57,46.12,66.04c30.48,8.82,64.86-8.93,75.23-37.45c2.77-7.62,3.99-15.28,5.28-23.08"/>
		<path class="st0" d="M542.75,68.46c-1.01-7.78-1.86-15.67-4.83-22.97c-5.3-13.04-14.08-23.52-25.98-30.94
			c-11.98-7.46-25.43-10.69-39.42-8.95c-18.29,2.28-33.32,10.64-44.63,25.77c-8.34,11.15-12.44,23.8-12.33,37.08
			c0.14,18.27,6.88,34.32,20.85,47.11c9.04,8.27,19.48,13.54,31.13,15.72c19.27,3.61,36.91-1.31,51.9-13.91
			c14.27-11.99,22.11-27.51,22.59-46.42c0.02-0.67,0.31-1.33,0.48-2"/>
		<path class="st0" d="M499,79.46c4.11,0.47,5.67-1.83,6-5.5c0.66-7.33,1.34-14.67,1.99-22c0.26-2.89-0.75-4.34-3.99-4.57
			c-8.85-0.62-17.67-1.6-26.51-2.43c-3.67-0.34-7.34-0.6-11-1.02c-4.31-0.49-5.97,0.69-6.48,5.02c-0.22,1.83,0.32,3.73-0.52,5.5"/>
		<path class="st0" d="M414.5,68.96c-1-0.17-2-0.48-3-0.48c-23.67-0.03-47.33-0.03-71,0c-1,0-2,0.31-3,0.48"/>
		<path class="st0" d="M619.5,68.96c-1.77-0.84-3.66-0.48-5.5-0.49c-23.67-0.02-47.33-0.01-71-0.01"/>
		<path class="st0" d="M208,68.96c-1.58-1.06-3.34-0.46-5-0.47c-23.67-0.05-47.33-0.03-71-0.03"/>
		<path class="st0" d="M451.5,69.46c-1.11,4.8-0.27,9.67-0.48,14.5c-0.12,2.7,1.48,3.53,3.98,3.52c13.33-0.05,26.67-0.1,40,0.04
			c2.78,0.03,3.47-1.36,3.48-3.56c0.05-8.17,0.1-16.33-0.02-24.5c-0.05-3.46-2.47-4.06-5.46-4.04c-9.83,0.09-19.67,0.03-29.5,0.03
			c-2.83,0-5.67-0.02-8.5,0c-2.32,0.02-4.11,1.72-3.83,3.47c0.55,3.38-1.05,6.76,0.33,10.03"/>
		<path class="st0" d="M241.5,93.46c18.67,0,37.33-0.02,56,0.04c1.66,0,3.42-0.59,5,0.46"/>
		<path class="st0" d="M97.5,83.46c-7.5,4.67-15.06,9.24-22.47,14.04c-3.33,2.16-5.94,3.11-9.64,0.09
			c-4.55-3.72-9.89-6.47-14.89-9.63"/>
		<path class="st0" d="M452,68.96c3.29,1.07,6.67,0.44,10,0.46c11.83,0.09,23.67,0.04,35.5,0.04"/>
		<path class="st0" d="M452,61.96c3.29,1.07,6.67,0.44,10,0.46c11.83,0.09,23.67,0.04,35.5,0.04"/>
		<path class="st0" d="M96,71.96c-5.98-4.03-11.97-8.05-18.37-12.36c-8.64,5.5-17.37,11.06-26.43,16.83
			c5.57,5.41,11.96,7.98,17.31,12.03c1.29,0.98,2.27,0.39,3.53-0.44C79.97,82.75,88,77.63,96,72.46"/>
		<path class="st0" d="M83,49.96c-7.2,6.12-15.73,10.24-23.47,15.54c-1.07,0.73-2.49,0.76-2.96,0.37
			c-5.39-4.41-12.17-6.83-17.85-12.06c8.25-5.16,16.09-9.89,23.72-14.95c1.62-1.08,3.64-1.42,4.47-0.78
			c5.32,4.11,12,6.24,16.6,11.37"/>
		<path class="st0" d="M707,82.46c2.03-0.38,5.04,1.23,5.88-1.54c1.24-4.06,2.14-9.21-0.62-12.24c-3.26-3.58-4.76-7.75-6.62-11.79
			c-1.4-3.04-3.16-3.74-6.14-3.49c-2.73,0.23-5.65,0.6-7.05-2.93c-0.7-1.75-2.58-0.95-3.95-1c-9.33-0.35-18.68,0.6-28-0.52"/>
		<path class="st0" d="M247.5,78.96c-0.96-7,1-13.43,5.6-18.4c8.64-9.33,17.88-18.11,26.9-27.09c2.97-2.95,9.19-2.66,12.49,0.49
			c2.88,2.76,3.45,9.09,0.99,11.99c-8.24,9.74-17.31,18.7-26.59,27.4c-4.8,4.49-11.43,5.63-17.9,5.99c-1.22,0.07-1.8,0.43-2.49,1.12
			"/>
		<path class="st0" d="M97,76.96c-7.63,6.56-16.53,11.21-24.98,16.53c-2.45,1.54-4.18-0.06-6-1.06c-5.65-3.08-10.53-7.45-16.52-9.97
			"/>
		<path class="st0" d="M693.75,53.46c-1.39,2.73-0.57,5.66-0.72,8.5c-0.1,1.96,1.21,2.99,2.97,2.95c4-0.08,8.04,0.56,12-0.45"/>
		<path class="st0" d="M676.5,57.46c-6.67,0-13.33,0-20,0"/>
		<path class="st0" d="M671.5,64.96c-5.67,0-11.33,0-17,0"/>
		<path class="st0" d="M37.5,59.46c5.87,2.99,10.81,7.55,17,10"/>
		<path class="st0" d="M658.5,82.96c3.78-0.5,7.36-1.58,10.15,2.91c2.3,3.7,6.08,3.53,8.85,0.59c2.97-3.14,2.74-5.69-1.02-8.48
			c-3.33-2.47-5.8-1.89-8.46,1.99c-0.63,0.91-1.02,1.99-1.52,2.99"/>
		<path class="st0" d="M680,82.46c3.17,0,6.34,0.08,9.5-0.03c2.03-0.07,3.56,0.36,5.05,1.99c5.52,6.04,8.2,5.55,12.2-1.96
			c-3.37-6.94-9.3-9.05-13.25,0.5"/>
		<path class="st0" d="M668.5,72.46c-4,0-8,0-12,0"/>
		<path class="st0" d="M37.5,65.46c4.11,2.08,8.41,3.86,11.5,7.5"/>
		<path class="st0" d="M81,72.46c-3.83,2.33-7.67,4.67-11.5,7"/>
		<path class="st0" d="M279,36.46c3.67,3.67,7.33,7.33,11,11"/>
		<path class="st0" d="M261.5,75.46c-3.1-3.9-6.6-7.4-10.5-10.5"/>
		<path class="st0" d="M76.5,70.46c-3.33,2-6.67,4-10,6"/>
		<path class="st0" d="M483,74.96c-1.82,2.21-0.92,4.62-0.5,7c3,0,6,0.01,9-0.02c0.17,0,0.33-0.31,0.75-0.73c0-1.75,0-3.75,0-6.25
			c-3.06,0-5.91,0-8.75,0"/>
	</g>
</g>
</svg>
