<?xml version="1.0" encoding="utf-8"?>
<!-- Generator: Adobe Illustrator 24.3.0, SVG Export Plug-In . SVG Version: 6.00 Build 0)  -->
<svg version="1.1" id="Capa_1" xmlns="http://www.w3.org/2000/svg" xmlns:xlink="http://www.w3.org/1999/xlink" x="0px" y="0px"
	 viewBox="0 0 512 512" style="enable-background:new 0 0 512 512;" xml:space="preserve">
<style type="text/css">
	.st0{fill:#FFFFFF;}
</style>
<path class="st0" d="M435.9,74.4C387.8,26.4,323.8,0,255.7,0c-67.9,0-132,26.4-180.4,74.3C26.8,122.3,0.1,186.1,0,253.6v0.1v0
	c0,40.9,10.8,82.2,31.2,119.8L0.7,512l140-31.8c35.5,17.9,75,27.3,114.9,27.3h0.1c67.9,0,132-26.4,180.4-74.3
	c48.5-48,75.3-111.7,75.3-179.3C511.5,186.7,484.7,122.9,435.9,74.4z M255.7,467.5L255.7,467.5c-35.9,0-71.4-9-102.8-26l-6.6-3.6
	l-93.1,21.2l20.2-91.9l-3.9-6.7C50.2,327,40,290.1,40,253.7C40,135.9,136.8,40,255.7,40c57.4,0,111.4,22.3,152,62.7
	c41.2,41,63.8,94.7,63.8,151.2C471.5,371.6,374.7,467.5,255.7,467.5z"/>
<path class="st0" d="M186.2,141.9h-11.2c-3.9,0-10.2,1.5-15.6,7.3c-5.4,5.8-20.5,19.9-20.5,48.6s21,56.4,23.9,60.3
	c2.9,3.9,40.5,64.6,99.9,88c49.4,19.4,59.5,15.6,70.2,14.6c10.7-1,34.6-14.1,39.5-27.7s4.9-25.3,3.4-27.7c-1.5-2.4-5.4-3.9-11.2-6.8
	c-5.9-2.9-34.5-17.3-39.9-19.2c-5.4-1.9-9.3-2.9-13.2,2.9c-3.9,5.8-15.4,19.3-18.8,23.2c-3.4,3.9-6.8,4.4-12.7,1.5
	c-5.9-2.9-24.5-9.2-46.8-29.1c-17.4-15.5-29.5-35.2-32.9-41c-3.4-5.8-0.4-9,2.6-11.9c2.6-2.6,6.2-6.2,9.1-9.6
	c2.9-3.4,3.8-5.8,5.7-9.7c1.9-3.9,1-7.3-0.5-10.2c-1.5-2.9-12.7-31.8-17.9-43.3h0C194.9,142.4,190.3,142,186.2,141.9z"/>
</svg>
