<?xml version="1.0" encoding="utf-8"?>
<!-- Generator: Adobe Illustrator 24.3.0, SVG Export Plug-In . SVG Version: 6.00 Build 0)  -->
<svg version="1.1" id="Capa_2" xmlns="http://www.w3.org/2000/svg" xmlns:xlink="http://www.w3.org/1999/xlink" x="0px" y="0px"
	 viewBox="0 0 291 200" style="enable-background:new 0 0 291 200;" xml:space="preserve">
<style type="text/css">
	.st0{fill:none;stroke:#FFFFFF;stroke-width:10;stroke-miterlimit:10;}
</style>
<polyline class="st0" points="-4.5,80.6 25.7,47.5 52.9,78.1 77.6,47.5 105.2,77.7 132.8,47.5 159.3,77.2 186.4,47.5 213.2,76.8 
	240.2,47.1 267.2,76.3 296,44.7 "/>
<polyline class="st0" points="-4.7,126.8 25.4,93.7 52.7,124.3 77.4,93.7 104.9,124 132.5,93.7 159,123.5 186.1,93.7 212.9,123 
	240,93.3 267,122.5 295.7,90.9 "/>
<polyline class="st0" points="-4.5,175.8 25.7,142.6 52.9,173.3 77.6,142.6 105.2,172.9 132.8,142.6 159.3,172.4 186.4,142.6 
	213.2,171.9 240.2,142.2 267.2,171.4 296,139.9 "/>
</svg>
